<svg width="158" height="60" viewBox="0 0 158 60" fill="none" xmlns="http://www.w3.org/2000/svg">
<path d="M16.4917 30.0621H29.7484C28.2688 35.2592 24.0754 38.1217 18.395 38.1217C11.4805 38.1217 6.70716 33.1625 6.70716 26.3891C6.70716 19.6158 11.473 14.6566 18.395 14.6566C23.1609 14.6566 26.8339 16.9466 28.648 20.6195H34.0384C31.793 14.3221 25.9788 10.1733 18.395 10.1733C8.66256 10.1733 1.8 17.0433 1.8 26.3891C1.8 35.7351 8.67 42.6051 18.395 42.6051C27.5551 42.6051 34.2317 36.5008 34.9455 27.958V25.5713H16.4842V30.0547L16.4917 30.0621Z" fill="white"/>
<path d="M69.6228 8.12125H65.0946V41.9879H69.6228V8.12125Z" fill="white"/>
<path d="M144.694 18.4188V30.4859C144.694 35.4971 141.787 38.1663 137.587 38.1663C133.385 38.1663 130.478 35.5937 130.478 30.4859V30.3149L137.587 30.01L130.478 29.7126V18.4188H125.951V29.5193L124.895 29.4747C124.895 29.4747 120.114 29.5045 116.359 29.4896C116.129 29.4227 115.868 29.3335 115.594 29.2219L123.95 18.4188H118.516L112.664 26.4263C112.516 26.1289 112.389 25.8092 112.3 25.4597C112.233 22.6939 112.285 16.0916 112.285 16.0916L111.749 5.76431L111.214 16.099C111.214 16.099 111.266 24.0694 111.185 26.114C111.133 26.2553 111.08 26.3966 111.014 26.5379L105.073 18.4114H99.489L107.891 29.326C107.735 29.3855 107.586 29.4375 107.437 29.4747C103.623 29.497 98.4708 29.4673 98.4708 29.4673L97.266 29.5193C96.8868 22.4635 91.8534 17.7942 84.7458 17.7942C77.2584 17.7942 72.0096 22.9913 72.0096 30.3892C72.0096 38.1663 77.8236 42.5976 83.9796 42.5976C88.0836 42.5976 91.5636 40.6421 93.1398 36.8279V41.9804H97.2882V30.5008L98.478 30.5528C98.478 30.5528 103.616 30.5305 107.408 30.5453C107.557 30.5825 107.713 30.6271 107.884 30.6866L99.1026 41.9879H104.537L110.909 33.3484C111.014 33.5417 111.095 33.735 111.17 33.9358C111.251 35.9804 111.199 44.4266 111.199 44.4266L111.735 55.2L112.27 44.434C112.27 44.434 112.226 37.7053 112.285 34.7684C112.345 34.4859 112.441 34.129 112.634 33.7127L118.746 41.9953H124.33L115.594 30.813C115.839 30.7089 116.099 30.6197 116.374 30.5528C120.114 30.5379 124.888 30.5677 124.888 30.5677L125.951 30.523C125.958 38.7611 130.962 42.4265 136.828 42.4265C140.36 42.4265 143.222 40.8057 144.702 37.8986V41.2816C144.702 46.6274 141.884 48.7241 137.497 48.7241C134.114 48.7241 131.772 47.4824 130.679 44.8132H126.151C127.534 50.159 132.062 52.687 137.505 52.687C144.04 52.687 149.237 49.3932 149.237 41.1923V18.4411H144.709L144.694 18.4188ZM84.6858 38.4042C79.8234 38.4042 76.5744 34.9692 76.5744 30.2033C76.5744 25.4375 79.8162 22.0025 84.6858 22.0025C89.556 22.0025 92.5674 25.207 92.7828 29.72L85.764 30.0175L92.79 30.3149C92.7384 35.0287 89.5116 38.4116 84.6858 38.4116" fill="white"/>
<path d="M48.9308 17.8016C41.4437 17.8016 36.1946 22.9988 36.1946 30.3967C36.1946 38.1737 42.0163 42.605 48.1651 42.605C52.2692 42.605 55.7488 40.6496 57.325 36.8354V41.9879H61.4736V30.3967C61.4736 22.8575 56.3213 17.8016 48.9308 17.8016ZM48.8788 38.4042C44.0163 38.4042 40.7672 34.9692 40.7672 30.2033C40.7672 25.4375 44.0089 22.0025 48.8788 22.0025C53.7488 22.0025 56.9905 25.4375 56.9905 30.2033C56.9905 34.9692 53.7488 38.4042 48.8788 38.4042Z" fill="white"/>
<path d="M113.869 9.73463C114.768 9.73463 116.159 9.73463 116.278 9.74207H116.307C116.486 9.77183 116.857 9.81641 117.222 10.2031C117.593 10.5896 117.653 10.9763 117.631 11.4819V13.6306H118.077V11.1027C118.077 11.1027 118.047 10.6937 118.493 10.1882C118.493 10.1882 118.85 9.80153 119.356 9.75695H121.943V9.31085H119.519C119.519 9.31085 119.021 9.29597 118.545 8.91677C118.545 8.91677 118.04 8.42603 118.055 7.86101L118.069 5.39999H117.638V7.90559C117.638 7.90559 117.608 8.46323 117.266 8.79779C116.962 9.09521 116.642 9.25877 116.33 9.28853C116.062 9.31085 113.899 9.30341 113.876 9.30341H113.757V9.73463H113.869Z" fill="white"/>
<path d="M119.386 13.2737H119.266V13.7867H119.378C120.248 13.7867 122.56 13.7793 122.746 13.8016H122.783C123.036 13.8388 123.571 13.9057 124.092 14.4559C124.62 15.0136 124.702 15.5638 124.672 16.2701V19.2218H125.207V15.7422C125.207 15.7422 125.162 15.1474 125.802 14.4336C125.802 14.4336 126.315 13.8834 127.036 13.8165H130.605V13.2812H127.267C127.267 13.2812 126.56 13.2589 125.884 12.7161C125.884 12.7161 125.162 12.0172 125.177 11.2142L125.192 7.82382H124.679V11.2737C124.679 11.2737 124.642 12.0692 124.136 12.5525C123.698 12.9763 123.251 13.2068 122.798 13.2514C122.426 13.2886 119.401 13.2663 119.371 13.2663" fill="white"/>
<path d="M9.6663 48.7092V51.3263H6.93762V48.7092H5.5919V55.0588H6.93762V52.4342H9.6663V55.0588H11.0046V48.7092H9.6663Z" fill="white"/>
<path d="M12.4174 48.7092V55.0588H16.7074V53.9509H13.7557V52.4342H16.4769V51.3263H13.7557V49.8096H16.6925V48.7092H12.4174Z" fill="white"/>
<path d="M20.7594 50.159H20.8115L21.5921 52.5605H19.9787L20.7594 50.159ZM19.9193 48.7092L17.7259 55.0588H19.1609L19.6293 53.6089H21.9193L22.3877 55.0588H23.8301L21.6442 48.7092H19.9118H19.9193Z" fill="white"/>
<path d="M24.9007 48.7092V55.0588H28.9677V53.9509H26.2465V48.7092H24.9007Z" fill="white"/>
<path d="M29.1313 48.7092V49.8096H31.0718V55.0588H32.4027V49.8096H34.3433V48.7092H29.1313Z" fill="white"/>
<path d="M39.5775 48.7092V51.3263H36.8563V48.7092H35.5105V55.0588H36.8563V52.4342H39.5775V55.0588H40.9232V48.7092H39.5775Z" fill="white"/>
<path d="M46.0089 48.7092H44.6632V55.0588H46.0089V48.7092Z" fill="white"/>
<path d="M51.3918 48.7092V52.7018H51.3323L48.5962 48.7092H47.414V55.0588H48.7598V51.0587H48.8044L51.5702 55.0588H52.7301V48.7092H51.3918Z" fill="white"/>
<path d="M57.5852 50.5308C57.5629 50.278 57.4514 50.0847 57.2656 49.9509C57.0797 49.8096 56.8194 49.7427 56.4997 49.7427C56.2841 49.7427 56.0982 49.7724 55.9421 49.8319C55.7934 49.8914 55.6744 49.9806 55.6001 50.0847C55.5183 50.1888 55.4811 50.3152 55.4811 50.449C55.4811 50.5606 55.5034 50.6647 55.5555 50.7464C55.6075 50.8282 55.6819 50.9026 55.7711 50.962C55.8677 51.0215 55.9718 51.0736 56.0908 51.1182C56.2097 51.1628 56.3436 51.2 56.4848 51.2297L57.0574 51.3635C57.3325 51.423 57.5852 51.5048 57.8231 51.6089C58.0537 51.713 58.2544 51.8394 58.4254 51.9881C58.5964 52.1368 58.7228 52.3152 58.8194 52.5234C58.9161 52.7316 58.9607 52.9621 58.9607 53.2297C58.9607 53.6164 58.8566 53.9509 58.6633 54.2409C58.47 54.5234 58.1875 54.7465 57.8231 54.9026C57.4588 55.0588 57.0127 55.1331 56.4997 55.1331C55.9867 55.1331 55.5406 55.0513 55.1614 54.8952C54.7822 54.739 54.4848 54.5086 54.2767 54.1963C54.061 53.884 53.9569 53.5048 53.942 53.0513H55.2432C55.2581 53.2669 55.3175 53.4379 55.4291 53.5792C55.5406 53.7205 55.6819 53.8246 55.8677 53.8989C56.0536 53.9732 56.2544 54.003 56.4923 54.003C56.7302 54.003 56.9161 53.9732 57.0871 53.9063C57.2581 53.8394 57.3845 53.7502 57.4811 53.6312C57.5704 53.5123 57.6224 53.3785 57.6224 53.2223C57.6224 53.081 57.5778 52.9621 57.496 52.8654C57.4142 52.7687 57.2878 52.687 57.1317 52.6201C56.9681 52.5532 56.7748 52.4862 56.5444 52.4342L55.8529 52.2632C55.3175 52.1293 54.8938 51.9286 54.5815 51.6535C54.2692 51.3784 54.1205 50.9992 54.1205 50.5308C54.1205 50.1442 54.2171 49.8096 54.4253 49.5271C54.6335 49.2371 54.9161 49.0141 55.2804 48.8579C55.6447 48.6943 56.0536 48.62 56.522 48.62C56.9905 48.62 57.4068 48.7018 57.7562 48.8579C58.1057 49.0215 58.3808 49.2445 58.5815 49.5271C58.7749 49.817 58.879 50.1442 58.8864 50.5234H57.6001L57.5852 50.5308Z" fill="white"/>
<path d="M64.0836 48.7092H65.4294V52.8356C65.4294 53.2966 65.3178 53.7056 65.1024 54.0476C64.8792 54.397 64.5744 54.6647 64.1802 54.858C63.786 55.0513 63.3252 55.148 62.7972 55.148C62.2692 55.148 61.8084 55.0513 61.4142 54.858C61.02 54.6647 60.7152 54.397 60.4926 54.0476C60.2766 53.6981 60.165 53.2966 60.165 52.8356V48.7092H61.5036V52.7167C61.5036 52.9621 61.5558 53.1703 61.6674 53.3635C61.7712 53.5494 61.92 53.6981 62.1204 53.8097C62.3142 53.9137 62.5446 53.9732 62.7972 53.9732C63.0498 53.9732 63.2808 53.9212 63.4812 53.8097C63.6744 53.7056 63.8232 53.5568 63.9276 53.3635C64.0314 53.1776 64.0836 52.9621 64.0836 52.7167V48.7092Z" fill="white"/>
<path d="M70.2618 52.1665L71.838 55.0588H70.3584L68.8122 52.1665H70.2618ZM66.8346 55.0513V48.7018H69.3402C69.8232 48.7018 70.2324 48.7835 70.5666 48.9545C70.9086 49.1256 71.169 49.3635 71.3472 49.6757C71.526 49.988 71.6154 50.3524 71.6154 50.7687C71.6154 51.1851 71.526 51.5568 71.34 51.8542C71.154 52.1591 70.8942 52.3895 70.5522 52.5531C70.2102 52.7167 69.7938 52.7985 69.303 52.7985H67.6224V51.7204H69.0798C69.3324 51.7204 69.5484 51.6832 69.7194 51.6163C69.8904 51.5494 70.0164 51.4379 70.0986 51.2966C70.1802 51.1553 70.2246 50.9843 70.2246 50.7761C70.2246 50.5679 70.1802 50.3895 70.0986 50.2408C70.0164 50.0996 69.8904 49.988 69.7194 49.9137C69.5484 49.8394 69.3324 49.8022 69.0798 49.8022H68.1726V55.0513H66.8268H66.8346Z" fill="white"/>
<path d="M75.5634 50.159H75.615L76.3962 52.5605H74.7828L75.5634 50.159ZM74.7156 48.7092L72.522 55.0588H73.9572L74.4258 53.6089H76.7154L77.184 55.0588H78.6264L76.4406 48.7092H74.7084H74.7156Z" fill="white"/>
<path d="M83.6826 48.7092V52.7018H83.6226L80.8866 48.7092H79.7046V55.0588H81.0504V51.0587H81.0948L83.8608 55.0588H85.0206V48.7092H83.6826Z" fill="white"/>
<path d="M92.0316 50.9249H90.6714C90.6492 50.7464 90.597 50.5903 90.5226 50.4565C90.4482 50.3226 90.3444 50.2037 90.225 50.107C90.1062 50.0104 89.9652 49.936 89.8086 49.8839C89.6526 49.8319 89.4816 49.8096 89.3034 49.8096C88.9758 49.8096 88.686 49.8914 88.4406 50.0549C88.1952 50.2186 88.0098 50.4565 87.8754 50.7613C87.7416 51.0736 87.675 51.4453 87.675 51.884C87.675 52.3226 87.7416 52.7167 87.8754 53.0215C88.0098 53.3264 88.203 53.5643 88.4484 53.7205C88.6938 53.8766 88.9758 53.9584 89.2956 53.9584C89.4744 53.9584 89.6454 53.936 89.7942 53.884C89.9502 53.8394 90.084 53.765 90.2028 53.6758C90.3216 53.5866 90.426 53.4751 90.5004 53.3413C90.582 53.2074 90.6342 53.0587 90.6636 52.8877H92.0244C91.9872 53.1851 91.9056 53.4676 91.764 53.7353C91.623 54.003 91.437 54.2483 91.2066 54.4565C90.9762 54.6721 90.6936 54.8357 90.3666 54.9621C90.0468 55.0885 89.6748 55.148 89.2734 55.148C88.7082 55.148 88.203 55.0216 87.7566 54.7613C87.3108 54.5086 86.961 54.1368 86.7012 53.6461C86.4408 53.1628 86.3142 52.5754 86.3142 51.884C86.3142 51.1925 86.448 50.6051 86.7084 50.1145C86.9688 49.6312 87.3252 49.2594 87.7716 48.9992C88.2174 48.7464 88.7232 48.62 89.2806 48.62C89.6454 48.62 89.9874 48.6721 90.3072 48.7762C90.6192 48.8802 90.9018 49.0289 91.1472 49.2296C91.3926 49.4304 91.593 49.6684 91.7418 49.9509C91.8978 50.2334 91.9944 50.5606 92.0394 50.9323" fill="white"/>
<path d="M93.303 48.7092V55.0588H97.5936V53.9509H94.6416V52.4342H97.3626V51.3263H94.6416V49.8096H97.5786V48.7092H93.303Z" fill="white"/>
<path d="M152.59 54.9175C152.122 54.9175 151.661 54.8282 151.237 54.6424C150.821 54.4639 150.449 54.2186 150.13 53.8988C149.81 53.5792 149.557 53.2074 149.386 52.7911C149.207 52.3598 149.111 51.9062 149.111 51.4379C149.111 50.9695 149.2 50.5085 149.386 50.0847C149.564 49.6683 149.81 49.2965 150.13 48.9769C150.449 48.6571 150.821 48.4043 151.237 48.2333C151.669 48.0549 152.122 47.9582 152.59 47.9582C153.059 47.9582 153.52 48.0475 153.944 48.2333C154.36 48.4118 154.732 48.6571 155.051 48.9769C155.371 49.2965 155.624 49.6683 155.795 50.0847C155.974 50.5159 156.07 50.9695 156.07 51.4379C156.07 51.9062 155.981 52.3672 155.795 52.7911C155.617 53.2074 155.371 53.5792 155.051 53.8988C154.732 54.2186 154.36 54.4714 153.944 54.6424C153.512 54.8208 153.059 54.9175 152.59 54.9175ZM152.59 48.5084C150.977 48.5084 149.668 49.817 149.668 51.4304C149.668 53.0438 150.977 54.3524 152.59 54.3524C154.204 54.3524 155.512 53.0438 155.512 51.4304C155.512 49.817 154.204 48.5084 152.59 48.5084Z" fill="#FFFFF8"/>
<path d="M153.958 53.1331H153.274L152.821 52.226C152.732 52.0475 152.62 51.9212 152.323 51.9212H151.855V53.1331H151.237V49.7353H152.524C153.311 49.7353 153.81 50.0773 153.81 50.791C153.81 51.2892 153.542 51.6089 153.185 51.7724C153.304 51.832 153.371 51.9509 153.438 52.0773L153.966 53.1331H153.958ZM152.494 51.3859C152.895 51.3859 153.17 51.2222 153.17 50.8133C153.17 50.4267 152.903 50.2706 152.494 50.2706H151.84V51.3859H152.494Z" fill="#FFFFF8"/>
</svg>
