<?xml version="1.0" encoding="UTF-8"?><svg id="a" xmlns="http://www.w3.org/2000/svg" width="164" height="54.21" viewBox="0 0 164 54.21"><defs><style>.b{fill:#99282b;}.c{fill:#19499c;}.d{fill:#6d6d6d;}</style></defs><path class="d" d="M2.87,51.07H.88v.88h1.57v.7H.88v1.5h-.88v-3.78h2.87v.7Z"/><path class="d" d="M6.31,50.31c.38,0,.7.08.97.23.27.16.48.38.63.67.15.29.22.64.22,1.04s-.07.75-.22,1.04c-.15.29-.36.51-.63.67-.27.16-.6.23-.97.23s-.7-.08-.98-.23c-.27-.16-.49-.38-.63-.67-.15-.29-.22-.64-.22-1.04s.07-.75.22-1.04c.15-.29.36-.51.63-.67.27-.16.6-.23.98-.23ZM6.31,51.02c-.2,0-.37.05-.5.14-.14.09-.24.23-.31.42-.07.18-.11.41-.11.68s.04.49.11.68c.07.19.18.32.31.42s.3.14.5.14.36-.05.5-.14c.14-.09.24-.23.31-.42.07-.19.11-.41.11-.68s-.04-.5-.11-.68c-.07-.18-.17-.32-.31-.42-.14-.09-.3-.14-.5-.14Z"/><path class="d" d="M13.41,54.15l-1-1.55c.16-.05.29-.12.41-.22.25-.2.37-.49.37-.87,0-.35-.12-.63-.37-.84-.25-.21-.59-.31-1.03-.31h-1.72v3.78h.87v-1.42h.65l.84,1.42h.99ZM10.94,51.06h.74c.21,0,.36.04.47.12.1.08.15.21.15.39s-.05.31-.15.39c-.1.08-.26.13-.47.13h-.74v-1.03Z"/><path class="d" d="M19.4,50.37v3.78h-.79v-1.86l.03-1.13h-.01l-.99,2.99h-.72l-.98-2.99h-.02l.03,1.13v1.86h-.79v-3.78h1.27l.63,1.99.23.83h.01l.23-.83.63-2h1.22Z"/><path class="d" d="M21.51,54.15v-3.78h2.88v.7h-1.99v.85h1.57v.66h-1.57v.87h2.07v.7h-2.96Z"/><path class="d" d="M29.66,54.15l-1-1.55c.16-.05.29-.12.41-.22.25-.2.37-.49.37-.87,0-.35-.12-.63-.37-.84-.25-.21-.59-.31-1.03-.31h-1.72v3.78h.87v-1.42h.65l.84,1.42h.99ZM27.18,51.06h.74c.21,0,.36.04.47.12.1.08.15.21.15.39s-.05.31-.15.39c-.1.08-.26.13-.47.13h-.74v-1.03Z"/><path class="d" d="M32.31,53.45h1.93v.7h-2.82v-3.78h.88v3.08Z"/><path class="d" d="M38.48,50.37l-1.34,2.38v1.4h-.88v-1.4l-1.33-2.38h.92l.56,1.08.29.61.29-.61.57-1.08h.92Z"/><path class="d" d="M46.3,54.15l-1-1.55c.16-.05.29-.12.41-.22.25-.2.37-.49.37-.87,0-.35-.12-.63-.37-.84-.25-.21-.59-.31-1.03-.31h-1.72v3.78h.87v-1.42h.65l.84,1.42h.99ZM43.82,51.06h.74c.21,0,.36.04.47.12.1.08.15.21.15.39s-.05.31-.15.39c-.1.08-.26.13-.47.13h-.74v-1.03Z"/><path class="d" d="M48.06,54.15v-3.78h2.88v.7h-1.99v.85h1.57v.66h-1.57v.87h2.07v.7h-2.96Z"/><path class="d" d="M53.75,53.45h1.93v.7h-2.82v-3.78h.88v3.08Z"/><path class="d" d="M58.38,50.37v3.78h-.88v-3.78h.88Z"/><path class="d" d="M63.82,54.15h-.91l-.29-.89h-1.36l-.29.89h-.9l1.35-3.78h1.06l1.35,3.78ZM61.44,52.64h1l-.5-1.59-.5,1.59Z"/><path class="d" d="M68.83,50.37v3.78h-.99l-1.24-2.13-.3-.59h-.01l.02.67v2.05h-.78v-3.78h.99l1.24,2.13.31.6h.01l-.02-.68v-2.05h.78Z"/><path class="d" d="M74.23,53.09c-.08.25-.19.46-.35.63-.16.17-.34.29-.56.37s-.46.12-.72.12c-.38,0-.7-.08-.98-.23-.27-.16-.48-.38-.63-.67-.15-.29-.22-.64-.22-1.04s.07-.75.22-1.04c.15-.29.36-.51.63-.67.27-.16.6-.23.97-.23.26,0,.5.04.71.11.21.07.4.18.55.33.15.15.26.34.32.57l-.79.33c-.06-.23-.15-.4-.28-.49-.13-.09-.29-.14-.48-.14s-.36.05-.5.14c-.14.09-.25.23-.33.42-.08.18-.12.41-.12.68s.04.49.11.68c.07.19.18.32.32.42.14.09.32.14.52.14.19,0,.36-.05.5-.16s.23-.27.29-.48l.81.23Z"/><path class="d" d="M76.04,54.15v-3.78h2.88v.7h-1.99v.85h1.57v.66h-1.57v.87h2.07v.7h-2.96Z"/><path class="d" d="M85.42,52.13v.62h.92v.07c0,.12-.02.22-.06.31-.04.09-.1.16-.17.21-.07.06-.16.1-.26.13-.1.03-.21.04-.33.04-.22,0-.41-.05-.55-.14s-.26-.23-.34-.42c-.08-.19-.11-.42-.11-.7s.04-.49.12-.68c.08-.18.19-.32.33-.42.14-.1.31-.14.52-.14s.37.05.5.14c.14.09.23.24.29.44l.82-.33c-.14-.33-.35-.57-.6-.72-.26-.15-.59-.23-1.01-.23-.38,0-.71.08-.99.23-.28.16-.5.38-.65.67-.15.29-.23.64-.23,1.05s.07.76.22,1.05c.14.29.35.51.61.66.26.15.56.23.9.23s.59-.07.8-.21c.13-.09.23-.2.32-.33l.04.48h.62v-2.02h-1.68Z"/><path class="d" d="M89.11,54.15v-3.78h2.88v.7h-1.99v.85h1.57v.66h-1.57v.87h2.07v.7h-2.96Z"/><path class="d" d="M97.22,50.37v3.78h-.99l-1.24-2.13-.3-.59h-.01l.02.67v2.05h-.78v-3.78h.99l1.24,2.13.31.6h.01l-.02-.68v-2.05h.78Z"/><path class="d" d="M99.33,54.15v-3.78h2.88v.7h-1.99v.85h1.57v.66h-1.57v.87h2.07v.7h-2.96Z"/><path class="d" d="M107.48,54.15l-1-1.55c.16-.05.29-.12.41-.22.25-.2.37-.49.37-.87,0-.35-.12-.63-.37-.84-.25-.21-.59-.31-1.03-.31h-1.72v3.78h.87v-1.42h.65l.84,1.42h.99ZM105,51.06h.74c.21,0,.36.04.47.12.1.08.15.21.15.39s-.05.31-.15.39c-.1.08-.26.13-.47.13h-.74v-1.03Z"/><path class="d" d="M112.59,54.15h-.91l-.29-.89h-1.36l-.29.89h-.9l1.35-3.78h1.06l1.35,3.78ZM110.2,52.64h1l-.5-1.59-.5,1.59Z"/><path class="d" d="M115.17,53.45h1.93v.7h-2.82v-3.78h.88v3.08Z"/><path class="d" d="M122.61,50.37v3.78h-.88v-3.78h.88Z"/><path class="d" d="M128.02,50.37v3.78h-.99l-1.24-2.13-.3-.59h-.01l.02.67v2.05h-.78v-3.78h.99l1.24,2.13.31.6h.01l-.02-.68v-2.05h.78Z"/><path class="d" d="M131.55,50.31c.35,0,.65.06.91.17.26.11.49.28.68.5l-.46.57c-.16-.18-.33-.32-.52-.41-.19-.09-.4-.13-.64-.13-.15,0-.28.02-.37.05-.1.04-.16.09-.21.15-.04.06-.07.13-.07.21,0,.09.04.17.12.23.08.06.21.12.39.16l.67.15c.37.08.64.21.81.38.17.17.25.38.25.66s-.07.48-.2.66c-.14.18-.32.32-.55.41s-.5.14-.81.14c-.25,0-.49-.03-.72-.09s-.42-.14-.6-.25c-.18-.11-.33-.23-.45-.37l.46-.6c.09.11.2.22.34.31.13.09.28.16.45.21.17.05.34.08.52.08.14,0,.26-.02.36-.05s.17-.08.22-.14c.05-.06.07-.13.07-.21,0-.09-.03-.17-.09-.23-.06-.06-.18-.11-.35-.15l-.73-.17c-.22-.05-.41-.12-.57-.2s-.29-.2-.38-.34c-.09-.14-.13-.31-.13-.5,0-.23.06-.44.19-.62.13-.18.31-.33.54-.43.24-.1.52-.16.85-.16Z"/><path class="d" d="M138.22,50.37v2.26c0,.53-.14.92-.42,1.18-.28.26-.69.39-1.23.39s-.95-.13-1.23-.39c-.28-.26-.42-.66-.42-1.18v-2.26h.88v2.26c0,.29.06.51.19.66.13.14.32.21.57.21s.45-.07.57-.21c.13-.14.19-.36.19-.66v-2.26h.88Z"/><path class="d" d="M143.6,54.15l-1-1.55c.16-.05.29-.12.41-.22.25-.2.37-.49.37-.87,0-.35-.12-.63-.37-.84-.25-.21-.59-.31-1.03-.31h-1.72v3.78h.87v-1.42h.65l.84,1.42h.99ZM141.12,51.06h.74c.21,0,.36.04.47.12.1.08.15.21.15.39s-.05.31-.15.39c-.1.08-.26.13-.47.13h-.74v-1.03Z"/><path class="d" d="M148.7,54.15h-.91l-.29-.89h-1.36l-.29.89h-.9l1.35-3.78h1.06l1.35,3.78ZM146.32,52.64h1l-.5-1.59-.5,1.59Z"/><path class="d" d="M153.71,50.37v3.78h-.99l-1.24-2.13-.3-.59h-.01l.02.67v2.05h-.78v-3.78h.99l1.24,2.13.31.6h.01l-.02-.68v-2.05h.78Z"/><path class="d" d="M159.11,53.09c-.08.25-.19.46-.35.63-.16.17-.34.29-.56.37s-.46.12-.72.12c-.38,0-.7-.08-.98-.23-.27-.16-.48-.38-.63-.67-.15-.29-.22-.64-.22-1.04s.07-.75.22-1.04c.15-.29.36-.51.63-.67.27-.16.6-.23.97-.23.26,0,.5.04.71.11.21.07.4.18.55.33.15.15.26.34.32.57l-.79.33c-.06-.23-.15-.4-.28-.49-.13-.09-.29-.14-.48-.14s-.36.05-.5.14c-.14.09-.25.23-.33.42-.08.18-.12.41-.12.68s.04.49.11.68c.07.19.18.32.32.42.14.09.32.14.52.14.19,0,.36-.05.5-.16s.23-.27.29-.48l.81.23Z"/><path class="d" d="M160.91,54.15v-3.78h2.88v.7h-1.99v.85h1.57v.66h-1.57v.87h2.07v.7h-2.96Z"/><path class="b" d="M55.27,31.81v-.97l1.27-.15c.31-.07.53-.18.63-.34.11-.16.16-.47.16-.94v-13.12c0-.43-.06-.72-.17-.87-.12-.15-.35-.25-.7-.3l-1.19-.15v-.97h7.57v.97l-1.32.15c-.28.03-.48.14-.6.31-.12.17-.17.49-.17.94v13.09c0,.45.06.75.17.91.12.16.33.26.65.31l1.27.15v.97h-7.57Z"/><path class="b" d="M64.75,31.81v-.95l1.12-.17c.25-.03.41-.13.48-.29.07-.16.11-.45.11-.89v-7.75c0-.58-.05-.97-.14-1.16-.09-.19-.33-.3-.71-.34l-1.07-.15.12-1,4.54-.27.25.17.07,2.39h.07c.38-.9.95-1.58,1.71-2.06.76-.47,1.61-.71,2.56-.71s1.69.17,2.28.52c.6.35,1.04.85,1.33,1.5.29.65.43,1.44.43,2.37v6.66c0,.37.05.62.16.75.11.13.32.22.63.27l1.02.1v1h-6.65v-.95l.89-.12c.28-.05.46-.15.53-.3s.11-.41.11-.77v-6.26c0-.73-.05-1.31-.16-1.75-.11-.43-.31-.74-.61-.92-.3-.18-.71-.27-1.24-.27-.56,0-1.06.12-1.48.36-.42.24-.76.6-1.01,1.08-.25.48-.37,1.06-.37,1.75v5.96c0,.37.04.62.11.77.07.15.24.24.48.27l1.07.2v.95h-6.68Z"/><path class="b" d="M86.26,32.16c-1.14,0-2.1-.24-2.88-.71-.78-.47-1.37-1.19-1.78-2.16-.41-.96-.61-2.13-.61-3.49,0-1.46.24-2.73.73-3.8.49-1.07,1.19-1.9,2.11-2.48.92-.58,2.04-.87,3.36-.87.55,0,1.08.07,1.59.22.51.15.96.33,1.34.55v-4.04c0-.53-.06-.89-.19-1.07-.12-.18-.4-.28-.83-.3l-1.09-.17.15-1,4.99-.12.27.22v16.66c0,.4.05.67.15.82s.31.25.62.3l1.07.17v.95l-4.64.17-.32-2.04h-.02c-.31.47-.66.86-1.03,1.18-.37.32-.81.57-1.32.75-.51.17-1.06.26-1.68.26ZM87.32,30.46c.56,0,1.05-.12,1.46-.35.41-.23.74-.6.98-1.1.24-.5.36-1.1.36-1.8v-6.23c-.36-.3-.79-.54-1.27-.71-.48-.17-.96-.26-1.44-.26-.7,0-1.26.19-1.7.56-.44.37-.77.96-.98,1.76-.22.8-.32,1.84-.32,3.12,0,1.16.12,2.12.35,2.85.23.74.56,1.28.99,1.63.43.35.95.52,1.56.52Z"/><path class="b" d="M101.55,32.16c-1.31,0-2.3-.37-2.98-1.11-.68-.74-1.02-1.82-1.02-3.25v-6.08c0-.52-.05-.88-.15-1.08-.1-.21-.33-.34-.7-.41l-.89-.1.1-1,4.67-.27.25.17v8.43c0,.71.06,1.29.19,1.73.12.44.34.75.65.94.31.18.7.27,1.18.27.56,0,1.05-.12,1.47-.36.41-.24.73-.61.94-1.1.21-.49.32-1.04.32-1.66v-5.54c0-.56-.05-.94-.14-1.13-.09-.19-.32-.32-.68-.39l-.87-.1.12-1,4.57-.27.27.17v10.42c0,.42.06.71.17.89.12.17.32.29.62.34l1.12.15-.02.97-4.64.22-.32-2.22h-.07c-.35.55-.72.99-1.1,1.33-.39.34-.83.6-1.32.77-.49.17-1.06.26-1.73.26Z"/><path class="b" d="M112.65,32.16l-.37-4.49,1.12-.1c.26.8.58,1.45.94,1.96.36.51.79.88,1.27,1.11.48.23,1.02.35,1.61.35.73,0,1.31-.19,1.75-.57.44-.38.66-.9.66-1.55,0-.43-.12-.78-.36-1.03-.24-.26-.58-.47-1.01-.65-.43-.17-.98-.35-1.64-.54-.56-.17-1.11-.35-1.64-.56-.53-.21-.98-.45-1.35-.74-.37-.28-.66-.65-.86-1.1-.2-.45-.3-.99-.3-1.62,0-.78.19-1.48.56-2.08.37-.61.9-1.08,1.58-1.41.68-.33,1.5-.5,2.46-.5.63,0,1.21.1,1.74.29.53.19.97.4,1.32.64l.25-.92h.92l.3,4.16-1.12-.1c-.3-.98-.72-1.72-1.28-2.22-.55-.5-1.23-.75-2.02-.75-.7,0-1.24.16-1.63.47-.39.32-.58.75-.58,1.3,0,.43.12.78.35,1.05.23.27.57.48,1.01.65.44.17.96.35,1.58.55.63.18,1.2.38,1.73.6.52.22.97.47,1.35.77.38.3.67.67.86,1.11.19.44.29.98.29,1.61,0,.86-.2,1.63-.61,2.29-.41.66-.97,1.17-1.7,1.51-.73.34-1.57.51-2.53.51-.66,0-1.29-.08-1.87-.25-.59-.17-1.1-.42-1.53-.75l-.32,1h-.89Z"/><path class="b" d="M124,31.81v-.97l1.27-.15c.31-.07.53-.18.63-.34.11-.16.16-.47.16-.94v-13.12c0-.43-.06-.72-.17-.87-.12-.15-.35-.25-.7-.3l-1.19-.15v-.97h7.57v.97l-1.32.15c-.28.03-.48.14-.6.31-.12.17-.17.49-.17.94v13.09c0,.45.06.75.17.91.12.16.33.26.65.31l1.27.15v.97h-7.57Z"/><path class="b" d="M133.48,31.81v-.95l1.12-.17c.25-.03.41-.13.48-.29.07-.16.11-.45.11-.89v-7.75c0-.58-.05-.97-.14-1.16-.09-.19-.33-.3-.71-.34l-1.07-.15.12-1,4.54-.27.25.17.07,2.39h.07c.38-.9.95-1.58,1.71-2.06.76-.47,1.61-.71,2.56-.71s1.69.17,2.28.52c.6.35,1.04.85,1.33,1.5.29.65.43,1.44.43,2.37v6.66c0,.37.05.62.16.75.11.13.32.22.63.27l1.02.1v1h-6.65v-.95l.89-.12c.28-.05.46-.15.53-.3s.11-.41.11-.77v-6.26c0-.73-.05-1.31-.16-1.75-.11-.43-.31-.74-.61-.92-.3-.18-.71-.27-1.24-.27-.56,0-1.06.12-1.48.36-.42.24-.76.6-1.01,1.08-.25.48-.37,1.06-.37,1.75v5.96c0,.37.04.62.11.77.07.15.24.24.48.27l1.07.2v.95h-6.68Z"/><path class="b" d="M154.99,32.16c-1.14,0-2.1-.24-2.88-.71-.78-.47-1.37-1.19-1.78-2.16-.41-.96-.61-2.13-.61-3.49,0-1.46.24-2.73.73-3.8.49-1.07,1.19-1.9,2.11-2.48.92-.58,2.04-.87,3.36-.87.55,0,1.08.07,1.59.22.51.15.96.33,1.34.55v-4.04c0-.53-.06-.89-.19-1.07-.12-.18-.4-.28-.83-.3l-1.09-.17.15-1,4.99-.12.27.22v16.66c0,.4.05.67.15.82s.31.25.62.3l1.07.17v.95l-4.64.17-.32-2.04h-.02c-.31.47-.66.86-1.03,1.18-.37.32-.81.57-1.32.75-.51.17-1.06.26-1.68.26ZM156.05,30.46c.56,0,1.05-.12,1.46-.35.41-.23.74-.6.98-1.1.24-.5.36-1.1.36-1.8v-6.23c-.36-.3-.79-.54-1.27-.71-.48-.17-.96-.26-1.44-.26-.7,0-1.26.19-1.7.56-.44.37-.77.96-.98,1.76-.22.8-.32,1.84-.32,3.12,0,1.16.12,2.12.35,2.85.23.74.56,1.28.99,1.63.43.35.95.52,1.56.52Z"/><path class="c" d="M58.48,40.51v1.1h1.64v.12c0,.21-.04.39-.11.55-.07.16-.18.28-.31.38-.13.1-.29.17-.46.22-.18.05-.37.08-.58.08-.39,0-.72-.08-.98-.24s-.46-.41-.6-.74c-.14-.33-.2-.75-.2-1.24s.07-.88.21-1.2c.14-.33.33-.57.59-.74.25-.17.56-.25.92-.25s.65.08.89.24c.24.16.42.42.52.77l1.45-.59c-.26-.58-.61-1.01-1.07-1.28-.46-.27-1.06-.41-1.8-.41-.67,0-1.25.14-1.75.42-.5.28-.89.68-1.16,1.2-.27.52-.41,1.14-.41,1.86s.13,1.36.39,1.87c.26.52.62.91,1.08,1.18.46.27,1,.4,1.6.4s1.06-.12,1.43-.37c.23-.15.42-.35.56-.58l.06.85h1.1v-3.59h-2.99Z"/><path class="c" d="M62.93,44.09v-6.72h5.11v1.24h-3.54v1.52h2.8v1.18h-2.8v1.54h3.68v1.24h-5.25Z"/><path class="c" d="M75.23,37.37v6.72h-1.76l-2.21-3.79-.54-1.05h-.02l.04,1.19v3.65h-1.39v-6.72h1.76l2.2,3.79.55,1.06h.02l-.04-1.2v-3.65h1.39Z"/><path class="c" d="M76.86,44.09v-6.72h5.11v1.24h-3.54v1.52h2.8v1.18h-2.8v1.54h3.68v1.24h-5.25Z"/><path class="c" d="M89.23,44.09l-1.78-2.75c.28-.09.52-.22.73-.38.44-.36.65-.87.65-1.54,0-.62-.22-1.12-.66-1.49-.44-.37-1.05-.56-1.83-.56h-3.06v6.72h1.54v-2.52h1.16l1.49,2.52h1.75ZM84.83,38.59h1.32c.37,0,.65.07.83.22.18.15.27.38.27.7s-.09.54-.27.69c-.18.15-.45.22-.83.22h-1.32v-1.83Z"/><path class="c" d="M96.19,44.09h-1.62l-.52-1.58h-2.42l-.52,1.58h-1.59l2.39-6.72h1.89l2.39,6.72ZM91.95,41.4h1.79l-.89-2.83-.89,2.83Z"/><path class="c" d="M98.66,42.85h3.44v1.24h-5.01v-6.72h1.57v5.48Z"/><path class="c" d="M107.54,37.37v6.72h-1.57v-6.72h1.57Z"/><path class="c" d="M115.04,37.37v6.72h-1.76l-2.21-3.79-.54-1.05h-.02l.04,1.19v3.65h-1.39v-6.72h1.76l2.2,3.79.55,1.06h.02l-.04-1.2v-3.65h1.39Z"/><path class="c" d="M119.2,37.27c.62,0,1.16.1,1.62.3.47.2.87.5,1.21.89l-.81,1.02c-.28-.33-.59-.57-.92-.73-.33-.16-.71-.24-1.14-.24-.27,0-.49.03-.66.1-.17.06-.29.15-.37.26-.08.11-.12.23-.12.37,0,.16.07.3.21.41.14.11.37.21.68.28l1.2.27c.66.15,1.14.37,1.45.67s.45.68.45,1.17-.12.85-.36,1.18c-.24.32-.57.57-.98.73-.42.17-.9.25-1.45.25-.45,0-.88-.05-1.27-.16-.4-.11-.75-.25-1.07-.44-.31-.19-.58-.41-.8-.65l.82-1.06c.16.2.36.39.6.55.24.16.5.29.8.38s.6.14.92.14c.25,0,.46-.03.64-.09.18-.06.31-.14.4-.24.09-.11.13-.23.13-.38,0-.16-.06-.3-.17-.41-.11-.11-.32-.2-.61-.26l-1.3-.3c-.39-.09-.72-.21-1.01-.36-.29-.15-.51-.35-.67-.6-.16-.24-.24-.54-.24-.9,0-.41.11-.77.33-1.1.22-.33.55-.58.97-.77.42-.19.93-.28,1.52-.28Z"/><path class="c" d="M128.93,37.37v4.02c0,.94-.25,1.64-.74,2.1-.49.47-1.22.7-2.18.7s-1.69-.23-2.18-.7c-.49-.47-.74-1.17-.74-2.1v-4.02h1.57v4.01c0,.52.11.91.33,1.17.22.25.56.38,1.01.38s.79-.13,1.01-.38c.22-.25.33-.64.33-1.17v-4.01h1.57Z"/><path class="c" d="M136.37,44.09l-1.78-2.75c.28-.09.52-.22.73-.38.44-.36.65-.87.65-1.54,0-.62-.22-1.12-.66-1.49-.44-.37-1.05-.56-1.83-.56h-3.06v6.72h1.54v-2.52h1.16l1.49,2.52h1.75ZM131.97,38.59h1.32c.37,0,.65.07.83.22.18.15.27.38.27.7s-.09.54-.27.69c-.18.15-.45.22-.83.22h-1.32v-1.83Z"/><path class="c" d="M143.33,44.09h-1.62l-.52-1.58h-2.42l-.52,1.58h-1.59l2.39-6.72h1.89l2.39,6.72ZM139.09,41.4h1.79l-.89-2.83-.89,2.83Z"/><path class="c" d="M150.12,37.37v6.72h-1.76l-2.21-3.79-.54-1.05h-.02l.04,1.19v3.65h-1.39v-6.72h1.76l2.2,3.79.55,1.06h.02l-.04-1.2v-3.65h1.39Z"/><path class="c" d="M157.59,42.21c-.14.45-.34.82-.62,1.12-.28.3-.61.51-1,.66-.39.14-.81.21-1.27.21-.67,0-1.25-.14-1.73-.42-.49-.28-.86-.68-1.13-1.19-.26-.52-.4-1.13-.4-1.85s.13-1.34.4-1.85c.26-.52.64-.91,1.13-1.19.49-.28,1.06-.42,1.72-.42.46,0,.88.06,1.26.19.38.13.71.33.97.59.27.26.46.6.57,1.02l-1.4.58c-.1-.41-.27-.7-.49-.87-.23-.17-.51-.25-.86-.25s-.64.08-.9.25c-.25.17-.45.41-.59.74-.14.33-.21.73-.21,1.21s.06.88.19,1.21c.13.33.32.58.57.74.25.17.56.25.93.25.34,0,.64-.09.89-.28.25-.19.42-.47.51-.86l1.44.42Z"/><path class="c" d="M158.68,44.09v-6.72h5.11v1.24h-3.54v1.52h2.8v1.18h-2.8v1.54h3.68v1.24h-5.25Z"/><path class="b" d="M49.58,1.96c-.18-.29-.25-.39-.25-.39-.12,0-.21.12-.19.51,0,0,.06,1,.12,1.92.07,1,.06,2.04-.46,2.96-.57,1.03-1.18,1.5-2.23,2.12-1.08.63-2.05,1.03-2.05,1.03,0,0,.84.75,2.03,2.25.72.89.21,1.86-.45,2.69-.67.83-.78,1.53-.84,2.08-.01.1-.03.21-.05.32,0,0,0,0,0,0-.06.38-.05.57-.62,1.09-.32.29-.12.9.05,1.16,0,0,1.1-.46,1.22-1.77,0-.04.03-.34.05-.46.21-1.33.52-1.45,1.67-2.59,1.16-1.15.43-2.65.22-3.05-.15-.29.41-.78,1.28-1.78.88-1,1.55-2.47,1.62-4.07.07-1.6-.58-3.17-1.11-4Z"/><path class="b" d="M43.3,14.64c.09.03.38-.65.37-.85-.01-.21-.12-.32-.28-.45-.16-.14-.87-.61-.87-.61,0,0-.29.67.16.99.14.1.51.35.54.53.02.09-.07.35.08.4Z"/><rect class="b" x="4.25" y="38.16" width="40.99" height="1.87"/><rect class="b" x="0" y="41.6" width="45.23" height="2.5"/><path class="b" d="M44.93,22.29c-1.04-1.5-1.31-2.56-1.31-2.56,0,0,0,0,0,0,0,0-.38-.42-.52-.64-.29-.46-.39-1.03-.35-1.6.01-.23.04-.38.04-.51.02-.24-.1-.55-.29-.71-.77-.65-1.22-1.17-1.42-1.49-1.05-1.79-.29-2.86-.1-3.18.41-.66,1.58-1.19,1.76-1.27.19-.09.45-.24.32-.48-.12-.23-1.15-1.51-1.31-4.37-.12-2.08,1.21-3.7,2.22-4.63.58-.46.57-.72.54-.84-.12-.07-.53.08-1.1.36-.93.46-2.51,1.59-3.13,2.97-.74,1.66-.6,3.65-.69,5.09-.01.13-.05.35-.09.48-.37,1.05-1.56.41-1.65.36-.31-.18-.68-.39-.91-.51-1.59-.8-3.63-.61-4.89.59-1.92,1.82-.97,4.32-.25,5.25-.06.03-4.81,1.84-9.52.62-3.76-.93-7.37-.39-9.11,1.99-.56.77-1.4,2.49-.77,5.9.15.8.27,1.08.66,2.53.36,1.32.86,3.55-.38,4.21-2.77,1.47-1.99,3.8-1.99,3.8,0,0,3.26-.7,3.64-4.8.17-1.85-.96-4.44-1.1-6.56-.17-2.59,1.09-3.93,1.82-4.49.89-.69,3.44-1.59,5.82-.48.53.25,1.05.52,1.53.77.88.44,1.66.74,2.22.76,1.88.07,4.05-.56,6.13-1.08,1.51-.38,3.92-1.31,3.92-1.31,0,0,1.74,1.94.94,4.48-.17.53-.29.94-.53,1.62-.13.36-.24,1.13-.14,1.63.08.38.14.84.37,1.69.01.05.14.57.18,1.07.02.3-.03.86-.22,1.2-.11.18-.21.31-.44.37-.26.06-.51-.11-1.29-.51-.63-.32-2.5-1.3-4.54-.83,0,0-.78.16-1.76.52-.59.22-1.64.27-2.28.12-.72-.16-1.97-.48-2.6-.66.22-1.32.36-2.23.26-2.45-.31-.72-1.99-1.93-2.76-2.42-.73-.46-.94.18-.8,1.03.34,2.02.22,5.01-3.08,5.81-.21.05-.33.21-.43.42-.53,1.16-1.71,4.25-1.72,4.29-.1.23,0,.38.09.4.47.08.62.47.62.76h-6.27v1.56h36.94v-1.56h-2.46c-.04-.07-.54-.87-.54-.88-.45-.17-.68-.28-.88-.55-.09-.12-.15-.26-.19-.41l-.21-.6c-.52-.06-1.48-.24-2.19-.77.3.99.54,1.99.63,2.27.03.1.07.2.18.21.44.04.66.39.67.72h-15.89c-.04-.07-.54-.87-.54-.88-.57-.22-.98-.44-1.17-.87,0,0-.5-1.15-.42-1.85.11-.89,1.11-1.55,1.11-1.55,0,0-.75-.2-1.14-.19-.6.02-.78.68-1.74,1.22-.25.14-.46.13-.35.51.15.5.73,2.2.87,2.69.03.1.07.2.18.21.44.04.62.39.64.72h-4.59c-.03-.05-.51-.87-.51-.87-.53-.21-.77-.54-.65-1.1.03-.16.23-.63.29-.78.47-1.12,1.34-1.23,1.75-1.36,1.04-.32,1.75-.58,2.37-1.03.18-.13.37-.34.59-.58.44-.48,1.01-.62,1.44-.53,1.88.34,3.56.89,3.56.89,0,0,1.94-.86,3.3-1.1,1.14-.2,2.14.03,2.94.35.5.2,1.07.43,1.59.77,1.06.68,1.9.9,1.91.91,0,0-.8.89-.97,1-.2.13-.37.12-.6-.05-.21-.15-.54-.43-.54-.43l-1.41,2.43s.77,0,1.47-.04c0,0,.65.42,1.39-.17.64-.51,1.32-1.01,2.28-1.31.57-.18.85-.46,1-.71.1-.17.12-.44.1-.63.18.23.74.6,1.26.8.63.26,1.22.36,1.81.3.46-.04.93-.17,1.44-.42,2.24-1.09,1.78-3.29,1.78-3.29,2.28-1.01,1.76-3.48.15-5.8ZM36.8,11.21c-.86-.78-1.93-1.75-3.97-.76l-.54.26v-.14s.03-.43.57-.81c1.58-1.14,3.56-.48,4.62.71.28.31.45.75.44.98v.02s-.02.06-.02.06h-.04c-.1.06-.21.08-.31.08-.21,0-.41-.09-.51-.18-.08-.07-.16-.15-.25-.22ZM38.36,30.56s0,0,0,0c0,0,0,0,0,0h0ZM39.97,29.08s-.06.08-.09.12c-.17.19-.52.33-.85.33-.18,0-.35-.04-.49-.12-.01,0-.04-.02-.07-.03-.12-.05-.2-.1-.24-.14l-.06-.06.06-.06s.06-.05.08-.08c.08-.09.16-.18.23-.27.38-.51.37-.94.37-.94,0-.8-.26-1.17-.68-1.79-.17-.26-.37-.55-.59-.92-.78-1.34-.14-2.47-.11-2.51l.06-.1.08.08s.36.26.39.81c-.04.45.02,1.04.77,1.78,1.53,1.48,1.94,2.88,1.15,3.92ZM43.15,29.28c-.21.47-.61.79-1.17.94-.11.03-.23.04-.33.04-.08,0-.17,0-.25-.03-.38-.08-.81-.42-.88-.62l-.03-.1h.11c.18-.03.35-.07.5-.13.68-.27.97-.89.77-1.66-.15-.56-.42-.78-.68-.99-.25-.2-.49-.39-.54-.83-.02-.18-.03-.35-.04-.51-.05-.63-.08-1.14-.46-1.63,0,0-.06-.08-.06-.08-.18-.22-.41-.45-.65-.7-.4-.42-.82-.85-1.06-1.27-.17-.33-.34-.72-.4-1.17-.05-.4,0-.88.05-1.39.04-.36.08-.73.08-1.08,0-.92-.25-1.44-.25-1.45l-.06-.12h.14s.56.01.81.85c.12.4.14,1,.16,1.58.02.43.03.84.09,1.13.12.76.46,1.34,1.13,1.95h0s.1.08.14.11l.07.05c.39.28,1.3.95,1.43,2.14.06.58.06,1.22.05,1.39.17.12.81.61,1.14,1.27.31.62.53,1.55.19,2.3ZM44.45,25.74c-.24.41-.61.5-.89.5-.23,0-.4-.06-.41-.06l-.09-.03.04-.09s.14-.31.16-.83c.04-1-.5-1.68-1.03-2.34-.07-.09-.14-.17-.21-.26-.11-.14-.27-.31-.47-.5-.4-.41-.91-.92-1.14-1.46-.4-.94-.3-1.89-.3-1.93v-.09s.1.01.1.01c.01,0,.36.06.45.6.19,1.17.83,1.74,1.3,2.15.06.06.12.11.18.16.55.51,1.26,1.29,1.49,1.59.89,1.14,1.17,2.01.82,2.59Z"/></svg>