<?xml version="1.0" encoding="UTF-8"?>
<svg xmlns="http://www.w3.org/2000/svg" id="Layer_1" data-name="Layer 1" viewBox="0 0 498.9 198.43">
  <defs>
    <style>
      .cls-1 {
        fill: #ed1c24;
      }

      .cls-1, .cls-2 {
        stroke-width: 0px;
      }

      .cls-2 {
        fill: #034ea2;
      }
    </style>
  </defs>
  <path class="cls-2" d="M11.72,45.04h33.58V11.55c0-5.97-4.85-10.81-10.84-10.81s-10.84,4.84-10.84,10.81v11.86h-11.9c-5.99,0-10.84,4.84-10.84,10.81s4.85,10.81,10.84,10.81"></path>
  <polygon class="cls-2" points="75.53 59.5 105.68 107.83 105.89 107.83 105.89 59.5 120.76 59.5 120.76 131.54 104.87 131.54 74.82 83.31 74.62 83.31 74.62 131.54 59.74 131.54 59.74 59.5 75.53 59.5"></polygon>
  <path class="cls-2" d="M128.23,95.42c.2-3.36,1.05-6.16,2.53-8.38,1.48-2.22,3.37-4,5.67-5.35,2.29-1.35,4.87-2.3,7.74-2.88,2.87-.57,5.75-.86,8.65-.86,2.63,0,5.29.19,7.99.55,2.7.37,5.16,1.09,7.39,2.17,2.23,1.08,4.05,2.57,5.46,4.49,1.42,1.92,2.12,4.46,2.12,7.62v27.14c0,2.35.13,4.61.4,6.76.27,2.15.74,3.77,1.42,4.84h-14.57c-.27-.81-.49-1.63-.66-2.47-.17-.84-.29-1.7-.35-2.57-2.29,2.36-4.99,4-8.09,4.94-3.1.94-6.27,1.41-9.51,1.41-2.5,0-4.82-.3-6.98-.91-2.16-.6-4.05-1.55-5.67-2.83-1.62-1.28-2.88-2.89-3.79-4.84-.91-1.95-1.37-4.27-1.37-6.96,0-2.96.52-5.4,1.57-7.32,1.04-1.92,2.39-3.45,4.05-4.59,1.65-1.14,3.54-2,5.67-2.57,2.12-.57,4.27-1.02,6.43-1.36,2.16-.34,4.28-.61,6.37-.81,2.09-.2,3.95-.5,5.57-.91,1.62-.4,2.9-.99,3.85-1.77.94-.77,1.38-1.9,1.32-3.38,0-1.55-.25-2.77-.76-3.68-.51-.91-1.18-1.61-2.02-2.12-.84-.5-1.82-.84-2.93-1.01-1.11-.17-2.31-.25-3.59-.25-2.83,0-5.06.61-6.68,1.82-1.62,1.21-2.56,3.23-2.83,6.05h-14.37ZM161.42,106.01c-.61.54-1.37.96-2.28,1.26-.91.3-1.89.55-2.93.76-1.05.2-2.14.37-3.29.5-1.15.14-2.29.3-3.44.5-1.08.2-2.14.47-3.19.81-1.05.34-1.96.79-2.73,1.36-.78.57-1.4,1.3-1.87,2.17-.47.87-.71,1.98-.71,3.33s.24,2.36.71,3.23c.47.87,1.11,1.56,1.92,2.07.81.5,1.75.86,2.83,1.06,1.08.2,2.19.3,3.34.3,2.83,0,5.02-.47,6.58-1.41,1.55-.94,2.7-2.07,3.44-3.38.74-1.31,1.2-2.64,1.37-3.99.17-1.34.25-2.42.25-3.23v-5.35Z"></path>
  <path class="cls-2" d="M198.7,79.37v9.69h.2c.67-1.61,1.58-3.11,2.73-4.49,1.15-1.38,2.46-2.56,3.95-3.53,1.48-.97,3.07-1.73,4.76-2.27,1.69-.54,3.44-.81,5.26-.81.94,0,1.99.17,3.14.5v13.32c-.67-.13-1.48-.25-2.43-.35-.95-.1-1.86-.15-2.73-.15-2.63,0-4.86.44-6.68,1.31-1.82.87-3.29,2.07-4.4,3.58-1.11,1.51-1.91,3.28-2.38,5.3-.47,2.02-.71,4.2-.71,6.56v23.51h-14.37v-52.17h13.66Z"></path>
  <path class="cls-2" d="M225.94,95.42c.2-3.36,1.05-6.16,2.53-8.38,1.48-2.22,3.37-4,5.67-5.35,2.29-1.35,4.87-2.3,7.74-2.88,2.87-.57,5.75-.86,8.65-.86,2.63,0,5.29.19,7.99.55,2.7.37,5.16,1.09,7.39,2.17,2.23,1.08,4.05,2.57,5.46,4.49,1.42,1.92,2.12,4.46,2.12,7.62v27.14c0,2.35.13,4.61.4,6.76.27,2.15.74,3.77,1.42,4.84h-14.57c-.27-.81-.49-1.63-.66-2.47-.17-.84-.29-1.7-.35-2.57-2.29,2.36-4.99,4-8.09,4.94-3.1.94-6.27,1.41-9.51,1.41-2.5,0-4.82-.3-6.98-.91-2.16-.6-4.05-1.55-5.67-2.83-1.62-1.28-2.88-2.89-3.79-4.84-.91-1.95-1.37-4.27-1.37-6.96,0-2.96.52-5.4,1.57-7.32,1.05-1.92,2.39-3.45,4.05-4.59,1.65-1.14,3.54-2,5.67-2.57,2.12-.57,4.27-1.02,6.43-1.36,2.16-.34,4.28-.61,6.37-.81,2.09-.2,3.95-.5,5.57-.91,1.62-.4,2.9-.99,3.85-1.77.94-.77,1.38-1.9,1.32-3.38,0-1.55-.25-2.77-.76-3.68-.51-.91-1.18-1.61-2.02-2.12-.84-.5-1.82-.84-2.93-1.01-1.11-.17-2.31-.25-3.59-.25-2.83,0-5.06.61-6.68,1.82-1.62,1.21-2.56,3.23-2.83,6.05h-14.37ZM259.13,106.01c-.61.54-1.37.96-2.28,1.26-.91.3-1.89.55-2.93.76-1.05.2-2.14.37-3.29.5-1.15.14-2.29.3-3.44.5-1.08.2-2.14.47-3.19.81-1.05.34-1.96.79-2.73,1.36-.78.57-1.4,1.3-1.87,2.17-.47.87-.71,1.98-.71,3.33s.24,2.36.71,3.23c.47.87,1.11,1.56,1.92,2.07.81.5,1.75.86,2.83,1.06,1.08.2,2.19.3,3.34.3,2.83,0,5.02-.47,6.58-1.41,1.55-.94,2.7-2.07,3.44-3.38.74-1.31,1.2-2.64,1.37-3.99.17-1.34.25-2.42.25-3.23v-5.35Z"></path>
  <path class="cls-2" d="M303.12,147.08c-2.77,1.82-6.61,2.72-11.54,2.72-1.48,0-2.95-.05-4.4-.15-1.45-.1-2.92-.22-4.4-.35v-11.81c1.35.13,2.73.27,4.15.4,1.42.13,2.83.17,4.25.1,1.89-.2,3.29-.94,4.2-2.22.91-1.28,1.37-2.69,1.37-4.24,0-1.14-.2-2.22-.61-3.23l-18.31-48.94h15.28l11.84,35.72h.2l11.43-35.72h14.87l-21.86,58.62c-1.55,4.24-3.71,7.26-6.48,9.08"></path>
  <path class="cls-2" d="M335.19,95.42c.2-3.36,1.05-6.16,2.53-8.38,1.48-2.22,3.37-4,5.67-5.35,2.29-1.35,4.87-2.3,7.74-2.88,2.87-.57,5.75-.86,8.65-.86,2.63,0,5.29.19,7.99.55,2.7.37,5.16,1.09,7.39,2.17,2.23,1.08,4.05,2.57,5.46,4.49,1.42,1.92,2.12,4.46,2.12,7.62v27.14c0,2.35.13,4.61.41,6.76.27,2.15.74,3.77,1.42,4.84h-14.57c-.27-.81-.49-1.63-.66-2.47-.17-.84-.29-1.7-.35-2.57-2.29,2.36-4.99,4-8.09,4.94-3.1.94-6.27,1.41-9.51,1.41-2.5,0-4.82-.3-6.98-.91-2.16-.6-4.05-1.55-5.67-2.83-1.62-1.28-2.88-2.89-3.79-4.84-.91-1.95-1.37-4.27-1.37-6.96,0-2.96.52-5.4,1.57-7.32,1.04-1.92,2.39-3.45,4.05-4.59,1.65-1.14,3.54-2,5.67-2.57,2.12-.57,4.27-1.02,6.43-1.36,2.16-.34,4.28-.61,6.37-.81,2.09-.2,3.95-.5,5.57-.91,1.62-.4,2.9-.99,3.85-1.77.94-.77,1.38-1.9,1.32-3.38,0-1.55-.25-2.77-.76-3.68-.51-.91-1.18-1.61-2.02-2.12-.84-.5-1.82-.84-2.93-1.01-1.11-.17-2.31-.25-3.59-.25-2.83,0-5.06.61-6.68,1.82-1.62,1.21-2.56,3.23-2.83,6.05h-14.37ZM368.38,106.01c-.61.54-1.37.96-2.28,1.26-.91.3-1.89.55-2.93.76-1.05.2-2.14.37-3.29.5-1.15.14-2.29.3-3.44.5-1.08.2-2.14.47-3.19.81-1.05.34-1.96.79-2.73,1.36-.78.57-1.4,1.3-1.87,2.17-.47.87-.71,1.98-.71,3.33s.24,2.36.71,3.23c.47.87,1.11,1.56,1.92,2.07.81.5,1.75.86,2.83,1.06,1.08.2,2.19.3,3.34.3,2.83,0,5.02-.47,6.58-1.41,1.55-.94,2.7-2.07,3.44-3.38.74-1.31,1.2-2.64,1.37-3.99.17-1.34.25-2.42.25-3.23v-5.35Z"></path>
  <path class="cls-2" d="M405.66,79.37v7.26h.3c1.82-3.03,4.18-5.23,7.08-6.61,2.9-1.38,5.87-2.07,8.9-2.07,3.85,0,7,.52,9.46,1.56,2.46,1.04,4.4,2.49,5.82,4.34,1.42,1.85,2.41,4.1,2.99,6.76.57,2.66.86,5.6.86,8.83v32.09h-14.37v-29.46c0-4.3-.68-7.52-2.02-9.64-1.35-2.12-3.74-3.18-7.18-3.18-3.91,0-6.75,1.16-8.5,3.48-1.75,2.32-2.63,6.14-2.63,11.45v27.34h-14.37v-52.17h13.66Z"></path>
  <path class="cls-2" d="M448.52,95.42c.2-3.36,1.05-6.16,2.53-8.38,1.48-2.22,3.37-4,5.67-5.35,2.29-1.35,4.87-2.3,7.74-2.88,2.87-.57,5.75-.86,8.65-.86,2.63,0,5.29.19,7.99.55,2.7.37,5.16,1.09,7.39,2.17,2.23,1.08,4.05,2.57,5.46,4.49,1.42,1.92,2.12,4.46,2.12,7.62v27.14c0,2.35.13,4.61.4,6.76.27,2.15.74,3.77,1.42,4.84h-14.57c-.27-.81-.49-1.63-.66-2.47-.17-.84-.29-1.7-.35-2.57-2.29,2.36-4.99,4-8.1,4.94-3.1.94-6.27,1.41-9.51,1.41-2.5,0-4.82-.3-6.98-.91-2.16-.6-4.05-1.55-5.67-2.83-1.62-1.28-2.88-2.89-3.79-4.84-.91-1.95-1.37-4.27-1.37-6.96,0-2.96.52-5.4,1.57-7.32,1.05-1.92,2.39-3.45,4.05-4.59,1.65-1.14,3.54-2,5.67-2.57,2.12-.57,4.27-1.02,6.43-1.36,2.16-.34,4.28-.61,6.38-.81,2.09-.2,3.95-.5,5.57-.91,1.62-.4,2.9-.99,3.85-1.77.94-.77,1.38-1.9,1.32-3.38,0-1.55-.25-2.77-.76-3.68-.51-.91-1.18-1.61-2.02-2.12-.84-.5-1.82-.84-2.93-1.01-1.11-.17-2.31-.25-3.59-.25-2.83,0-5.06.61-6.68,1.82-1.62,1.21-2.56,3.23-2.83,6.05h-14.37ZM481.71,106.01c-.61.54-1.37.96-2.28,1.26-.91.3-1.89.55-2.93.76-1.05.2-2.14.37-3.29.5-1.15.14-2.29.3-3.44.5-1.08.2-2.14.47-3.19.81-1.05.34-1.96.79-2.73,1.36-.78.57-1.4,1.3-1.87,2.17-.47.87-.71,1.98-.71,3.33s.24,2.36.71,3.23c.47.87,1.11,1.56,1.92,2.07.81.5,1.75.86,2.83,1.06,1.08.2,2.19.3,3.34.3,2.83,0,5.03-.47,6.58-1.41,1.55-.94,2.7-2.07,3.44-3.38.74-1.31,1.2-2.64,1.37-3.99.17-1.34.25-2.42.25-3.23v-5.35Z"></path>
  <rect class="cls-2" x="59.74" y="116.71" width="14.88" height="14.83"></rect>
  <path class="cls-1" d="M59.74,11.55v33.49h33.58c5.99,0,10.84-4.84,10.84-10.81s-4.85-10.81-10.84-10.81h-11.9v-11.86c0-5.97-4.85-10.81-10.84-10.81s-10.84,4.84-10.84,10.81"></path>
  <path class="cls-1" d="M45.3,92.93v-33.49H11.72c-5.99,0-10.84,4.84-10.84,10.81s4.85,10.81,10.84,10.81h11.9v11.86c0,5.97,4.85,10.81,10.84,10.81s10.84-4.84,10.84-10.81"></path>
  <polygon class="cls-1" points="59.34 156.85 69.58 156.85 69.58 171.17 83.07 171.17 83.07 156.85 93.32 156.85 93.32 196.17 83.07 196.17 83.07 179.98 69.58 179.98 69.58 196.17 59.34 196.17 59.34 156.85"></polygon>
  <path class="cls-1" d="M105.65,184.17c.07,1.98.66,3.56,1.76,4.74,1.1,1.18,2.64,1.76,4.63,1.76,1.14,0,2.2-.26,3.19-.77.99-.51,1.71-1.3,2.15-2.37h8.75c-.44,1.65-1.13,3.08-2.06,4.27-.94,1.19-2.04,2.18-3.3,2.95-1.27.77-2.66,1.34-4.18,1.71-1.52.37-3.07.55-4.65.55-2.31,0-4.43-.34-6.36-1.02-1.93-.68-3.58-1.67-4.96-2.97-1.38-1.3-2.44-2.9-3.19-4.79-.75-1.89-1.13-4.03-1.13-6.42,0-2.2.4-4.22,1.21-6.06.81-1.84,1.92-3.41,3.33-4.74,1.41-1.32,3.06-2.36,4.93-3.11,1.87-.75,3.85-1.13,5.95-1.13,2.57,0,4.81.45,6.72,1.35,1.91.9,3.49,2.14,4.74,3.72,1.25,1.58,2.17,3.42,2.75,5.53.59,2.11.83,4.38.72,6.8h-20.98ZM117.27,178.93c-.07-1.62-.62-2.99-1.65-4.13-1.03-1.14-2.33-1.71-3.91-1.71s-3,.53-4.05,1.6c-1.05,1.06-1.72,2.48-2.01,4.24h11.62Z"></path>
  <path class="cls-1" d="M128.72,176.4c.07-1.87.51-3.43,1.32-4.68.81-1.25,1.85-2.24,3.14-2.97,1.28-.73,2.71-1.25,4.27-1.54,1.56-.29,3.17-.44,4.82-.44s3.33.12,4.93.36c1.6.24,3.02.71,4.27,1.4,1.25.7,2.25,1.67,3,2.92.75,1.25,1.13,2.88,1.13,4.9v12.5c0,1.21.05,2.45.14,3.72.09,1.27.41,2.47.96,3.61h-9.42c-.18-.44-.3-.88-.36-1.32-.06-.44-.12-.9-.19-1.38-1.21,1.29-2.65,2.19-4.32,2.73-1.67.53-3.37.8-5.09.8-1.36,0-2.63-.17-3.83-.52-1.19-.35-2.23-.88-3.11-1.6-.88-.72-1.57-1.62-2.06-2.7-.5-1.08-.74-2.36-.74-3.83,0-1.54.26-2.83.77-3.85.51-1.03,1.21-1.87,2.09-2.53.88-.66,1.89-1.17,3.03-1.54,1.14-.37,2.32-.66,3.55-.88,1.23-.22,2.46-.4,3.69-.55,1.23-.15,2.39-.33,3.5-.55.81-.18,1.42-.45,1.84-.8.42-.35.63-.96.63-1.84,0-.55-.15-1.01-.44-1.38-.29-.37-.66-.67-1.1-.91-.44-.24-.93-.41-1.46-.52-.53-.11-1.04-.16-1.51-.16-2.68,0-4.24,1.19-4.68,3.58h-8.76ZM136.93,187.96c0,1.18.39,2.01,1.16,2.51.77.49,1.69.74,2.75.74,2.24,0,3.78-.66,4.63-1.98.84-1.32,1.21-3.47,1.1-6.44-.66.4-1.53.69-2.62.85-1.08.16-2.14.39-3.17.69-1.07.26-1.97.64-2.73,1.16-.75.51-1.13,1.34-1.13,2.48"></path>
  <rect class="cls-1" x="159.89" y="156.85" width="9.36" height="39.32"></rect>
  <path class="cls-1" d="M190.89,173.65h-5.78v13c0,1.14.3,1.88.91,2.23.61.35,1.42.52,2.45.52.4,0,.81-.02,1.21-.06.4-.04.81-.06,1.21-.06v6.88c-.84.04-1.7.09-2.56.16-.86.07-1.72.11-2.56.11-1.98,0-3.63-.16-4.93-.5-1.3-.33-2.33-.88-3.08-1.65-.75-.77-1.28-1.8-1.57-3.08-.29-1.28-.44-2.9-.44-4.85v-12.72h-4.74v-6.06h4.74v-8.65h9.36v8.65h5.78v6.06Z"></path>
  <path class="cls-1" d="M192.87,156.85h9.36v14.65h.11c.37-.73.86-1.39,1.49-1.98.62-.59,1.33-1.08,2.12-1.49.79-.4,1.62-.72,2.51-.94.88-.22,1.74-.33,2.59-.33,2.39,0,4.27.39,5.64,1.16,1.38.77,2.4,1.72,3.08,2.84.68,1.12,1.11,2.32,1.29,3.61.18,1.29.28,2.44.28,3.47v18.34h-9.36v-16.68c0-.95-.14-1.8-.41-2.53-.28-.73-.73-1.33-1.38-1.79-.64-.46-1.61-.69-2.89-.69-.88,0-1.64.17-2.29.52-.64.35-1.17.81-1.57,1.38-.4.57-.71,1.22-.91,1.96-.2.73-.3,1.49-.3,2.26v15.58h-9.36v-39.32Z"></path>
  <rect class="cls-1" x="240.88" y="156.85" width="10.24" height="39.32"></rect>
  <path class="cls-1" d="M255.64,167.59h9.09v3.91h.11c.44-.73.99-1.4,1.65-1.98.66-.59,1.39-1.08,2.2-1.49.81-.4,1.65-.72,2.53-.94.88-.22,1.74-.33,2.59-.33,2.39,0,4.27.39,5.64,1.16,1.38.77,2.4,1.72,3.08,2.84.68,1.12,1.11,2.32,1.29,3.61.18,1.29.28,2.44.28,3.47v18.34h-9.36v-16.68c0-.95-.14-1.8-.41-2.53-.28-.73-.73-1.33-1.38-1.79-.64-.46-1.61-.69-2.89-.69-.88,0-1.64.17-2.29.52-.64.35-1.17.81-1.57,1.38-.4.57-.71,1.22-.91,1.95-.2.73-.3,1.49-.3,2.26v15.58h-9.36v-28.58Z"></path>
  <path class="cls-1" d="M295.39,186.75c0,.73.14,1.36.41,1.87.28.51.65.96,1.13,1.32.44.33.96.58,1.57.74.61.16,1.24.25,1.9.25.44,0,.92-.06,1.43-.17.51-.11.99-.28,1.43-.52.44-.24.81-.55,1.1-.94.29-.39.44-.85.44-1.4s-.16-1-.5-1.35c-.33-.35-.73-.63-1.18-.85-.46-.22-.96-.39-1.49-.5-.53-.11-1-.22-1.4-.33-1.47-.37-2.98-.7-4.54-.99-1.56-.29-2.99-.74-4.29-1.35-1.3-.61-2.37-1.44-3.19-2.51-.83-1.06-1.24-2.57-1.24-4.52,0-1.73.41-3.15,1.24-4.27.83-1.12,1.88-2.01,3.17-2.67,1.28-.66,2.7-1.13,4.24-1.4,1.54-.28,3.01-.41,4.41-.41,1.58,0,3.13.14,4.65.41,1.52.28,2.91.75,4.16,1.43,1.25.68,2.27,1.62,3.06,2.81.79,1.19,1.22,2.73,1.29,4.6h-8.65c0-1.14-.4-1.96-1.21-2.48-.73-.48-1.73-.72-2.97-.72-.4,0-.84.02-1.29.06-.46.04-.89.13-1.29.28-.4.15-.74.37-1.02.66-.28.29-.41.68-.41,1.16,0,.66.35,1.21,1.05,1.65.7.44,1.57.8,2.62,1.07,1.05.28,2.19.52,3.44.74,1.25.22,2.4.44,3.47.66,1.43.29,2.62.75,3.55,1.38.94.62,1.68,1.3,2.23,2.04.55.73.94,1.49,1.16,2.26s.33,1.45.33,2.04c0,1.91-.41,3.52-1.24,4.82-.83,1.3-1.89,2.35-3.19,3.14-1.3.79-2.77,1.36-4.41,1.71-1.63.35-3.26.52-4.87.52s-3.36-.16-5.01-.47c-1.65-.31-3.13-.86-4.43-1.65-1.3-.79-2.37-1.84-3.19-3.17-.83-1.32-1.28-2.97-1.35-4.96h8.92Z"></path>
  <path class="cls-1" d="M344.95,196.17h-9.09v-3.91h-.11c-.88,1.47-2.14,2.63-3.77,3.47-1.63.84-3.28,1.27-4.93,1.27-2.06,0-3.76-.28-5.12-.85-1.36-.57-2.44-1.38-3.25-2.45-.81-1.06-1.38-2.35-1.71-3.85-.33-1.5-.5-3.19-.5-5.07v-17.18h9.36v16.57c0,1.91.39,3.24,1.18,3.99.79.75,1.94,1.13,3.44,1.13.51,0,1.06-.09,1.65-.28.59-.18,1.14-.52,1.65-1.02s.94-1.15,1.29-1.95c.35-.81.52-1.85.52-3.14v-15.31h9.36v28.58Z"></path>
  <path class="cls-1" d="M349.36,167.59h9.09v5.01h.11c.7-1.84,1.8-3.22,3.3-4.16,1.5-.94,3.27-1.4,5.29-1.4.37,0,.73.02,1.1.06.37.04.73.09,1.1.16v8.54c-.63-.18-1.22-.32-1.79-.41-.57-.09-1.17-.14-1.79-.14-1.18,0-2.19.18-3.06.55-.86.37-1.6.86-2.2,1.49-.61.62-1.06,1.35-1.35,2.18-.29.83-.44,1.68-.44,2.56v14.15h-9.36v-28.58Z"></path>
  <path class="cls-1" d="M369.89,176.4c.07-1.87.51-3.43,1.32-4.68.81-1.25,1.85-2.24,3.14-2.97,1.28-.73,2.71-1.25,4.27-1.54,1.56-.29,3.17-.44,4.82-.44s3.33.12,4.93.36c1.6.24,3.02.71,4.27,1.4,1.25.7,2.25,1.67,3,2.92.75,1.25,1.13,2.88,1.13,4.9v12.5c0,1.21.05,2.45.14,3.72.09,1.27.41,2.47.96,3.61h-9.42c-.18-.44-.3-.88-.36-1.32-.06-.44-.12-.9-.19-1.38-1.21,1.29-2.65,2.19-4.32,2.73-1.67.53-3.37.8-5.09.8-1.36,0-2.63-.17-3.83-.52-1.19-.35-2.23-.88-3.11-1.6-.88-.72-1.57-1.62-2.06-2.7-.5-1.08-.74-2.36-.74-3.83,0-1.54.26-2.83.77-3.85.51-1.03,1.21-1.87,2.09-2.53.88-.66,1.89-1.17,3.03-1.54,1.14-.37,2.32-.66,3.55-.88,1.23-.22,2.46-.4,3.69-.55,1.23-.15,2.39-.33,3.5-.55.81-.18,1.42-.45,1.84-.8.42-.35.63-.96.63-1.84,0-.55-.15-1.01-.44-1.38-.29-.37-.66-.67-1.1-.91-.44-.24-.93-.41-1.46-.52-.53-.11-1.04-.16-1.51-.16-2.68,0-4.24,1.19-4.68,3.58h-8.76ZM378.1,187.96c0,1.18.39,2.01,1.16,2.51.77.49,1.69.74,2.75.74,2.24,0,3.78-.66,4.63-1.98.84-1.32,1.21-3.47,1.1-6.44-.66.4-1.53.69-2.62.85-1.08.16-2.14.39-3.17.69-1.07.26-1.97.64-2.73,1.16-.75.51-1.13,1.34-1.13,2.48"></path>
  <path class="cls-1" d="M400.73,167.59h9.09v3.91h.11c.44-.73.99-1.4,1.65-1.98.66-.59,1.39-1.08,2.2-1.49.81-.4,1.65-.72,2.53-.94.88-.22,1.74-.33,2.59-.33,2.39,0,4.27.39,5.64,1.16,1.38.77,2.4,1.72,3.08,2.84.68,1.12,1.11,2.32,1.29,3.61.18,1.29.28,2.44.28,3.47v18.34h-9.36v-16.68c0-.95-.14-1.8-.41-2.53-.28-.73-.73-1.33-1.38-1.79-.64-.46-1.61-.69-2.89-.69-.88,0-1.64.17-2.29.52-.64.35-1.17.81-1.57,1.38-.4.57-.71,1.22-.91,1.95-.2.73-.3,1.49-.3,2.26v15.58h-9.36v-28.58Z"></path>
  <path class="cls-1" d="M451.83,178.05c0-.59-.13-1.14-.39-1.65-.26-.51-.6-.95-1.02-1.32-.42-.37-.91-.65-1.46-.85-.55-.2-1.12-.3-1.71-.3-1.32,0-2.38.26-3.17.77-.79.51-1.4,1.17-1.82,1.95-.42.79-.71,1.69-.85,2.7-.15,1.01-.22,2.01-.22,3,0,.92.1,1.83.3,2.73.2.9.53,1.7.99,2.39.46.7,1.04,1.27,1.73,1.71.7.44,1.54.66,2.53.66,1.65,0,2.9-.43,3.74-1.29.84-.86,1.38-2.06,1.6-3.61h9.09c-.22,1.91-.74,3.62-1.54,5.12-.81,1.51-1.84,2.77-3.11,3.8-1.27,1.03-2.73,1.81-4.38,2.34-1.65.53-3.43.8-5.34.8-2.17,0-4.16-.35-5.97-1.05-1.82-.7-3.4-1.69-4.74-2.97-1.34-1.29-2.39-2.83-3.14-4.63-.75-1.8-1.13-3.8-1.13-6s.35-4.37,1.05-6.28c.7-1.91,1.7-3.55,3-4.93,1.3-1.38,2.87-2.45,4.71-3.22,1.84-.77,3.91-1.16,6.22-1.16,1.76,0,3.46.24,5.09.72,1.63.48,3.09,1.18,4.38,2.12,1.28.94,2.33,2.11,3.14,3.52.81,1.41,1.3,3.06,1.49,4.93h-9.09Z"></path>
  <path class="cls-1" d="M471.65,184.17c.07,1.98.66,3.56,1.76,4.74,1.1,1.18,2.64,1.76,4.63,1.76,1.14,0,2.2-.26,3.19-.77.99-.51,1.71-1.3,2.15-2.37h8.75c-.44,1.65-1.13,3.08-2.06,4.27-.94,1.19-2.04,2.18-3.3,2.95-1.27.77-2.66,1.34-4.18,1.71-1.52.37-3.07.55-4.65.55-2.31,0-4.43-.34-6.36-1.02s-3.58-1.67-4.96-2.97c-1.38-1.3-2.44-2.9-3.19-4.79-.75-1.89-1.13-4.03-1.13-6.42,0-2.2.4-4.22,1.21-6.06.81-1.84,1.92-3.41,3.33-4.74,1.41-1.32,3.06-2.36,4.93-3.11,1.87-.75,3.85-1.13,5.95-1.13,2.57,0,4.81.45,6.72,1.35,1.91.9,3.49,2.14,4.74,3.72,1.25,1.58,2.17,3.42,2.75,5.53.59,2.11.83,4.38.72,6.8h-20.98ZM483.27,178.93c-.07-1.62-.62-2.99-1.65-4.13-1.03-1.14-2.33-1.71-3.91-1.71s-3,.53-4.05,1.6c-1.05,1.06-1.72,2.48-2.01,4.24h11.62Z"></path>
</svg>
