<svg xmlns="http://www.w3.org/2000/svg" width="96" height="45" viewBox="0 0 96 45" fill="none">
  <path d="M5.39119 38.9237L19.0233 27.3522C20.7317 25.908 21.9998 24.0235 22.7043 21.9276C23.3736 19.9374 23.5145 17.8063 23.127 15.728C22.7043 13.4912 21.7004 11.4834 20.2562 9.91585L19.6397 9.2818C19.6397 9.2818 19.6221 9.26419 19.6045 9.24658C18.4597 8.18983 17.0859 7.34442 15.536 6.81605L15.1661 6.69276C14.0389 6.34051 12.8589 6.16438 11.6789 6.16438C10.4988 6.16438 9.07221 6.39335 7.80411 6.83366C3.84129 8.20744 1.00568 11.5362 0.213111 15.7456C-0.174364 17.8063 -0.0334636 19.955 0.635812 21.9452C1.28748 23.9178 2.46752 25.7143 4.01742 27.1057L4.29922 27.3522L4.59863 27.5988L7.83933 30.3464L9.7591 28.726L5.90196 25.4677C4.54579 24.3229 3.52427 22.8258 2.97828 21.1526C2.4499 19.5675 2.32661 17.8415 2.64364 16.1859C2.94305 14.6008 3.61233 13.1389 4.59863 11.9413C5.65538 10.6556 7.01155 9.72211 8.61428 9.15851C9.6182 8.80626 10.6573 8.63014 11.6965 8.63014C12.7356 8.63014 12.7708 8.68297 13.2816 8.77104C14.9724 9.08806 16.5575 9.86301 17.9841 11.1135C18.2483 11.3601 18.4949 11.6419 18.7415 11.9237C19.7278 13.1213 20.3971 14.5832 20.6965 16.1683C21.0135 17.8239 20.8902 19.5323 20.3618 21.135C19.7982 22.8082 18.7943 24.3053 17.4382 25.4501L2.92544 37.7612V44.8943H19.1994V42.4286H5.40881V38.9061L5.39119 38.9237ZM38.1505 15.728C37.3579 11.5186 34.5223 8.18983 30.5595 6.81605C29.2914 6.37573 27.9881 6.14677 26.6847 6.14677C25.3814 6.14677 26.6143 6.14677 26.5967 6.14677H24.5712V2.46575H37.5164V0H22.1055V8.63014H26.6847C27.7063 8.63014 28.7454 8.78865 29.7493 9.1409C31.3697 9.7045 32.7082 10.638 33.765 11.9237C34.7513 13.1213 35.4205 14.5832 35.72 16.1683C36.037 17.8239 35.9137 19.5323 35.3853 21.135C34.8217 22.8082 33.8178 24.3053 32.4616 25.4501L19.1818 36.7045L15.4832 33.5695L13.5634 35.1898L19.1642 39.9452L34.0468 27.3346C35.7552 25.8904 37.0233 24.0059 37.7278 21.91C38.3971 19.9198 38.538 17.7887 38.1505 15.7104V15.728Z" fill="#005AA7"/>
  <path d="M26.0507 43.4149H27.4068V42.7808H26.0507V42.1115H27.583V41.4599H25.2757V44.8767H27.6886V44.225H26.0331V43.3973L26.0507 43.4149ZM34.2933 44.1194C34.2229 43.9961 34.1524 43.8904 34.0644 43.7671C33.9939 43.6614 33.9235 43.5558 33.853 43.4677C34.0644 43.3796 34.2229 43.2564 34.3286 43.1155C34.4342 42.9746 34.4871 42.7632 34.4871 42.5342C34.4871 42.1468 34.3462 41.865 34.082 41.6888C33.8178 41.5127 33.4127 41.407 32.9019 41.407C32.3912 41.407 32.6025 41.407 32.4264 41.4247C32.2503 41.4247 32.0742 41.4599 31.9157 41.4951V44.8591H32.6906V43.6086H33.0781C33.1485 43.6791 33.2014 43.7671 33.2718 43.8728C33.3423 43.9609 33.4127 44.0665 33.4656 44.1722C33.536 44.2779 33.6065 44.3836 33.6593 44.5068C33.7297 44.6301 33.7826 44.7358 33.853 44.8415H34.716C34.6632 44.7182 34.5928 44.5949 34.5223 44.454C34.4519 44.3307 34.3814 44.2074 34.311 44.0841L34.2933 44.1194ZM33.5184 42.9217C33.3951 42.9922 33.1838 43.0274 32.9019 43.0274H32.6906V42.0939C32.7258 42.0939 32.7787 42.0939 32.8139 42.0939C32.8667 42.0939 32.902 42.0939 32.9724 42.0939C33.219 42.0939 33.4127 42.1292 33.536 42.1996C33.6593 42.2701 33.7297 42.3933 33.7297 42.5519C33.7297 42.7104 33.6593 42.8513 33.536 42.9217H33.5184ZM23.673 42.182C23.5497 42.411 23.4088 42.6399 23.2855 42.8865C23.1446 42.6575 23.0213 42.4286 22.898 42.182C22.7748 41.953 22.6691 41.7241 22.5634 41.4775H21.6652C21.8589 41.8474 22.0526 42.1996 22.2464 42.5519C22.4401 42.9041 22.6691 43.2387 22.8804 43.591V44.8767H23.6554V43.5734C23.8843 43.2211 24.0957 42.8865 24.2894 42.5342C24.4832 42.182 24.6769 41.8297 24.8706 41.4599H24.0252C23.9196 41.6888 23.8139 41.9354 23.673 42.1644V42.182ZM30.7708 42.9922C30.6652 42.7104 30.5595 42.4638 30.4362 42.1996C30.3305 41.953 30.2248 41.7065 30.1016 41.4775H29.3794C29.2562 41.7065 29.1505 41.953 29.0448 42.1996C28.9391 42.4462 28.8335 42.7104 28.7278 42.9922C28.6221 43.274 28.4988 43.5558 28.3931 43.8728C28.2699 44.1898 28.1642 44.5245 28.0233 44.8943H28.8158C28.8511 44.771 28.8863 44.6477 28.9391 44.5245C28.9744 44.4012 29.0272 44.2779 29.0624 44.1546H30.401C30.4362 44.2779 30.489 44.4012 30.5243 44.5245C30.5595 44.6477 30.6123 44.771 30.6475 44.8943H31.4753C31.3521 44.5245 31.2288 44.1898 31.1055 43.8728C30.9822 43.5558 30.8765 43.274 30.7708 42.9922ZM29.2562 43.5382C29.309 43.3973 29.3618 43.2564 29.4147 43.1155C29.4675 42.9746 29.5203 42.8513 29.5556 42.7456C29.5908 42.6399 29.6436 42.5342 29.6612 42.4462C29.6965 42.3581 29.7141 42.2877 29.7317 42.2524C29.7493 42.3053 29.7845 42.3757 29.8198 42.4462C29.855 42.5342 29.8902 42.6223 29.943 42.7456C29.9783 42.8513 30.0311 42.9746 30.0839 43.1155C30.1368 43.2564 30.1896 43.3973 30.2425 43.5382H29.2738H29.2562ZM37.4636 43.5382C37.4284 43.4149 37.3579 43.3268 37.2699 43.2387C37.1818 43.1507 37.0761 43.0802 36.9352 43.0098C36.8119 42.9393 36.6534 42.8865 36.4773 42.816C36.3892 42.7808 36.3188 42.7632 36.2483 42.728C36.1779 42.6928 36.1074 42.6751 36.0546 42.6399C36.0018 42.6047 35.9665 42.5695 35.9313 42.5166C35.8961 42.4814 35.8785 42.4286 35.8785 42.3581C35.8785 42.2524 35.9137 42.182 36.0018 42.1292C36.0898 42.0763 36.2131 42.0587 36.3892 42.0587C36.5654 42.0587 36.6886 42.0763 36.8119 42.1115C36.9352 42.1468 37.0409 42.1996 37.129 42.2348L37.3579 41.636C37.2522 41.5832 37.1113 41.5303 36.9528 41.4775C36.7943 41.4247 36.583 41.407 36.354 41.407C36.125 41.407 35.9841 41.4247 35.8256 41.4775C35.6671 41.5303 35.5438 41.6008 35.4382 41.6888C35.3325 41.7769 35.2444 41.8826 35.1916 42.0059C35.1387 42.1292 35.1035 42.2701 35.1035 42.4286C35.1035 42.5871 35.1387 42.728 35.1916 42.8337C35.2444 42.9393 35.3149 43.045 35.4029 43.1155C35.491 43.1859 35.5967 43.2564 35.7023 43.3092C35.808 43.362 35.9313 43.3973 36.037 43.4501C36.3012 43.5382 36.4773 43.6086 36.583 43.6967C36.6886 43.7671 36.7415 43.8552 36.7415 43.9785C36.7415 44.1018 36.7415 44.0841 36.7239 44.1194C36.7239 44.1546 36.671 44.2074 36.6358 44.225C36.6006 44.2603 36.5301 44.2779 36.4597 44.2955C36.3892 44.3131 36.3012 44.3307 36.1955 44.3307C35.9841 44.3307 35.7904 44.3131 35.6495 44.2603C35.5086 44.2074 35.3677 44.1722 35.2796 44.1018L35.0683 44.7182C35.1211 44.7358 35.174 44.771 35.2444 44.8063C35.3149 44.8415 35.3853 44.8591 35.491 44.8943C35.5791 44.9119 35.6847 44.9472 35.808 44.9648C35.9313 44.9824 36.0722 45 36.2131 45C36.671 45 37.0057 44.9119 37.217 44.7358C37.446 44.5597 37.5517 44.3131 37.5517 43.9961C37.5517 43.6791 37.534 43.6967 37.4812 43.5734L37.4636 43.5382Z" fill="#005AA7"/>
  <path d="M44.3519 0.0528564V44.9472" stroke="#015BA7" stroke-width="0.5" stroke-miterlimit="10"/>
  <path d="M91.9762 0.0528564H55.0251V37.1801H91.9762V0.0528564Z" fill="#005BAA"/>
  <path d="M90.9018 1.1272H56.1171V36.0881H90.9018V1.1272Z" fill="#FEFEFE"/>
  <path d="M89.6337 2.39532H57.3499V34.8552H89.6337V2.39532Z" fill="#005BAA"/>
  <path d="M66.6141 8.17221H60.2384V10.2681H66.6141V8.17221Z" fill="#FEFEFE"/>
  <path d="M64.8353 9.81018H61.9644V14.8121H64.8353V9.81018Z" fill="#FEFEFE"/>
  <path fill-rule="evenodd" clip-rule="evenodd" d="M68.4987 8.18982H71.3343L73.9057 14.8121H71.0349L68.4987 8.18982Z" fill="#FEFEFE"/>
  <path fill-rule="evenodd" clip-rule="evenodd" d="M71.2462 8.18982H68.4458L65.8568 14.8121H68.71L71.2462 8.18982Z" fill="#FEFEFE"/>
  <path d="M79.5593 8.17221H73.1836V10.2681H79.5593V8.17221Z" fill="#FEFEFE"/>
  <path d="M77.7981 9.81018H74.9449V14.8121H77.7981V9.81018Z" fill="#FEFEFE"/>
  <path fill-rule="evenodd" clip-rule="evenodd" d="M81.4615 8.18982H84.2619L86.8509 14.8121H83.9977L81.4615 8.18982Z" fill="#FEFEFE"/>
  <path fill-rule="evenodd" clip-rule="evenodd" d="M84.209 8.18982H81.3734L78.802 14.8121H81.6552L84.209 8.18982Z" fill="#FEFEFE"/>
  <path d="M60.8548 26.0489H60.2384V28.9726H60.8548V26.0489Z" fill="#FEFEFE"/>
  <path fill-rule="evenodd" clip-rule="evenodd" d="M61.982 28.9726H62.5632V27.317C62.5632 27.1761 62.5632 26.9824 62.5104 26.7358C62.6161 26.9824 62.7041 27.1585 62.7746 27.2466L64.0603 28.9726H64.6415V26.0489H64.0779V27.6869C64.0779 27.8278 64.0779 28.0039 64.1131 28.2505C64.0075 28.0039 63.9546 27.8278 63.8666 27.7397L62.6161 26.0489H61.982V28.9726Z" fill="#FEFEFE"/>
  <path fill-rule="evenodd" clip-rule="evenodd" d="M65.6102 28.6028C65.7511 28.9022 66.0681 29.0431 66.5084 29.0431C67.1601 29.0431 67.5123 28.6732 67.5123 28.1448C67.5123 27.6165 67.2834 27.4932 66.8255 27.2642C66.4908 27.1233 66.2443 27.0705 66.2443 26.8063C66.2443 26.5421 66.3851 26.4716 66.6493 26.4716C66.9135 26.4716 67.0016 26.5597 67.072 26.7182L67.4419 26.3484C67.2482 26.1018 67.0016 25.9609 66.6493 25.9609C66.0329 25.9609 65.663 26.3307 65.663 26.7887C65.663 27.2466 65.9096 27.4227 66.3323 27.6165C66.7374 27.8278 66.9664 27.8983 66.9664 28.1448C66.9664 28.3914 66.7902 28.5323 66.5084 28.5323C66.2266 28.5323 66.0681 28.409 65.9977 28.1801L65.6454 28.5851L65.6102 28.6028Z" fill="#FEFEFE"/>
  <path fill-rule="evenodd" clip-rule="evenodd" d="M70.9468 26.0489H70.3304V27.7926C70.3304 28.2329 70.119 28.4971 69.6963 28.4971C69.2736 28.4971 69.0799 28.2681 69.0799 27.7926V26.0489H68.4634V27.8806C68.4634 28.6732 68.8685 29.0607 69.6963 29.0607C70.5241 29.0607 70.9116 28.6732 70.9116 27.8806V26.0489H70.9468Z" fill="#FEFEFE"/>
  <path fill-rule="evenodd" clip-rule="evenodd" d="M74.1171 28.9726L73.3421 27.6517C73.7296 27.5988 73.9762 27.2818 73.9762 26.8943C73.9762 26.5069 73.6239 26.0666 72.9546 26.0666H72.0916V28.9902H72.6728V27.6341L73.4478 28.9902H74.1171V28.9726ZM72.6552 27.2994V26.5245H72.7609C73.1484 26.5245 73.3773 26.5949 73.3773 26.9472C73.3773 27.2994 73.1484 27.317 72.7609 27.317H72.6552V27.2994Z" fill="#FEFEFE"/>
  <path fill-rule="evenodd" clip-rule="evenodd" d="M76.4419 27.8454H75.6317L75.9487 26.9295C75.9487 26.8767 76.0016 26.7534 76.0368 26.5068C76.0896 26.7182 76.1073 26.8591 76.1249 26.9119L76.4595 27.8454H76.4419ZM74.6278 28.9726H75.2795L75.4908 28.3562H76.5828L76.8118 28.9726H77.481L76.3891 26.0489H75.7022L74.6102 28.9726H74.6278Z" fill="#FEFEFE"/>
  <path fill-rule="evenodd" clip-rule="evenodd" d="M78.2736 28.9726H78.8548V27.317C78.8548 27.1761 78.8548 26.9824 78.8196 26.7358C78.9253 26.9824 78.9957 27.1585 79.0838 27.2466L80.3519 28.9726H80.9507V26.0489H80.3695V27.6869C80.3695 27.8278 80.3695 28.0039 80.4224 28.2505C80.3167 28.0039 80.2462 27.8278 80.1758 27.7397L78.9253 26.0489H78.2736V28.9726Z" fill="#FEFEFE"/>
  <path fill-rule="evenodd" clip-rule="evenodd" d="M84.3675 26.8239V26.1898C84.1562 26.0665 83.8744 25.9785 83.5221 25.9785C82.5711 25.9785 81.9722 26.6478 81.9722 27.5108C81.9722 28.3738 82.6063 29.0607 83.5045 29.0607C84.4028 29.0607 84.1033 28.9726 84.3675 28.8317V28.1977C84.121 28.409 83.8568 28.5147 83.5221 28.5147C82.9409 28.5147 82.5887 28.1272 82.5887 27.5108C82.5887 26.8943 82.9761 26.4892 83.575 26.4892C84.1738 26.4892 84.1386 26.6301 84.3499 26.8239H84.3675Z" fill="#FEFEFE"/>
  <path fill-rule="evenodd" clip-rule="evenodd" d="M85.4419 28.9726H87.0975V28.4266H86.0584V27.7045H87.0975V27.1937H86.0584V26.5773H87.0975V26.0489H85.4419V28.9726Z" fill="#FEFEFE"/>
  <path fill-rule="evenodd" clip-rule="evenodd" d="M68.6924 21.3288L67.4419 18.2114L66.1562 21.3288H68.71H68.6924ZM68.8333 21.7515H65.9801L65.4693 22.9844C65.346 23.2662 65.3108 23.4951 65.3108 23.6536C65.3108 23.8121 65.3636 23.865 65.4517 23.953C65.575 24.0587 65.8039 24.1116 66.121 24.1292V24.3405H63.8137V24.1292C64.1131 24.0587 64.3245 23.9883 64.4125 23.9178C64.5887 23.7417 64.8176 23.3718 65.0114 22.8082L67.6004 16.4325H67.7942L70.348 22.8787C70.5593 23.3894 70.7531 23.7417 70.9116 23.9002C71.0701 24.0411 71.3167 24.1292 71.5985 24.1468V24.3581H68.71V24.1468C68.9918 24.1468 69.2032 24.0763 69.3088 23.9883C69.4321 23.9002 69.4497 23.7945 69.4497 23.6536C69.4497 23.5127 69.3969 23.2309 69.2384 22.8787L68.8157 21.7691L68.8333 21.7515Z" fill="#FEFEFE"/>
  <path fill-rule="evenodd" clip-rule="evenodd" d="M75.1914 24.1292V24.3405H72.0388V24.1292H72.3206C72.62 24.1292 72.8313 24.0235 72.9722 23.865C73.0779 23.7241 73.1132 23.4247 73.1132 22.9843V17.9648C73.1132 17.5773 73.1131 17.3131 73.0427 17.2074C73.0075 17.1018 72.9194 17.0313 72.8314 16.9609C72.6728 16.8552 72.4967 16.82 72.3382 16.82H72.0564V16.6262H75.209V16.82H74.9272C74.6454 16.82 74.4165 16.9256 74.2756 17.1194C74.1875 17.2427 74.1347 17.5245 74.1347 17.9824V23.002C74.1347 23.3894 74.1347 23.6536 74.2051 23.7593C74.2404 23.865 74.3284 23.9178 74.4341 24.0059C74.5926 24.1115 74.7511 24.1468 74.9096 24.1468H75.1914V24.1292Z" fill="#FEFEFE"/>
  <path fill-rule="evenodd" clip-rule="evenodd" d="M82.2717 16.4325L82.4478 18.8806H82.2717C82.0779 18.2642 81.8313 17.8415 81.5319 17.5069C81.1092 17.0665 80.528 16.8552 79.8411 16.8552C79.1542 16.8552 78.2032 17.2427 77.71 18.0176C77.3049 18.6693 77.0936 19.4618 77.0936 20.3601C77.0936 21.2583 77.2345 21.7867 77.4987 22.3855C77.7805 23.002 78.1327 23.4247 78.573 23.7065C78.9957 24.0059 79.4713 24.1468 79.9116 24.1468C80.3519 24.1468 80.4576 24.1116 80.7041 24.0411C80.9683 23.953 81.1973 23.865 81.4439 23.7065V21.4697C81.4439 21.0822 81.391 20.8356 81.3382 20.7299C81.2677 20.589 81.1973 20.5186 81.0916 20.4482C80.9683 20.3777 80.757 20.3425 80.4576 20.3425V20.1311H83.2932V20.3425H83.1523C82.8529 20.3425 82.6768 20.4658 82.5711 20.6595C82.483 20.8004 82.4478 21.0822 82.4478 21.4697V23.865C82.0427 24.0763 81.62 24.2701 81.2325 24.3757C80.8274 24.499 80.3695 24.5166 79.8764 24.5166C78.4673 24.5166 77.3754 24.0411 76.6533 23.09C76.0897 22.3679 75.8255 21.5401 75.8255 20.589C75.8255 19.638 75.9664 19.2505 76.2834 18.6341C76.6709 17.8943 77.164 17.3131 77.7981 16.9256C78.3265 16.591 78.9605 16.4325 79.7002 16.4325C80.44 16.4325 80.211 16.4677 80.4223 16.5029C80.6513 16.5558 80.9507 16.6615 81.3558 16.8024C81.5495 16.8904 81.7081 16.9256 81.7609 16.9256C81.8137 16.9256 81.9018 16.9256 81.9194 16.82C81.9722 16.7671 82.0075 16.6438 82.0251 16.4325H82.2188H82.2717Z" fill="#FEFEFE"/>
  <path fill-rule="evenodd" clip-rule="evenodd" d="M50.3401 41.1252L50.8333 44.8943H51.8372L52.2775 41.9706H52.3479L52.8411 44.8943H53.8274L54.391 41.1252H53.5808L53.3871 43.6614H53.3519L52.9115 41.1252H51.8196L51.3969 43.6614H51.3793L51.256 41.1252H50.3401Z" fill="#005BAA"/>
  <path d="M56.117 41.1252H55.166V44.8767H56.117V41.1252Z" fill="#005BAA"/>
  <path fill-rule="evenodd" clip-rule="evenodd" d="M56.8039 41.1252V41.7065H57.5084V44.8943H58.4771V41.7065H59.1992V41.1252H56.8039Z" fill="#005BAA"/>
  <path fill-rule="evenodd" clip-rule="evenodd" d="M59.8509 41.1252V44.8943H60.8196V43.2035H61.436V44.8943H62.3871V41.1252H61.436V42.6223H60.8196V41.1252H59.8509Z" fill="#005BAA"/>
  <path fill-rule="evenodd" clip-rule="evenodd" d="M65.2227 41.1252L66.0505 43.3796V44.8943H66.984V43.3796L67.8294 41.1252H66.984L66.6141 42.7104H66.5789L66.1562 41.1252H65.2227Z" fill="#005BAA"/>
  <path fill-rule="evenodd" clip-rule="evenodd" d="M70.9468 42.3934C70.9468 41.4247 70.6826 41.0724 69.6787 41.0724C68.6748 41.0724 68.4106 41.4423 68.4106 42.3934V43.6086C68.4106 44.5949 68.6924 44.9472 69.6787 44.9472C70.665 44.9472 70.9468 44.5773 70.9468 43.6086V42.3934ZM70.0133 42.2348V43.7847C70.0133 44.2074 69.9781 44.366 69.6787 44.366C69.3793 44.366 69.344 44.2074 69.344 43.7847V42.2348C69.344 41.8474 69.3793 41.6536 69.6787 41.6536C69.9781 41.6536 70.0133 41.8474 70.0133 42.2348Z" fill="#005BAA"/>
  <path fill-rule="evenodd" clip-rule="evenodd" d="M71.845 41.1252V43.6086C71.845 44.5949 72.1092 44.9472 73.0955 44.9472C74.0818 44.9472 74.346 44.5773 74.346 43.6086V41.1252H73.3949V43.7671C73.3949 44.1898 73.3949 44.3483 73.0955 44.3483C72.7961 44.3483 72.7961 44.1898 72.7961 43.7671V41.1252H71.845Z" fill="#005BAA"/>
  <path fill-rule="evenodd" clip-rule="evenodd" d="M78.6787 41.7769L78.9252 43.5029H78.344L78.6611 41.7769H78.6787ZM78.0975 41.1252L77.2344 44.8767H78.0798L78.2207 44.1018H79.0133L79.1366 44.8767H80.0701L79.3127 41.1252H78.0975Z" fill="#005BAA"/>
  <path fill-rule="evenodd" clip-rule="evenodd" d="M80.7041 41.1252V44.8943H82.7295V44.3131H81.6376V41.1252H80.7041Z" fill="#005BAA"/>
  <path fill-rule="evenodd" clip-rule="evenodd" d="M82.8705 41.1252L83.3812 44.8943H84.3851L84.8431 41.9706H84.8783L85.3891 44.8943H86.3753L86.939 41.1252H86.1288L85.9526 43.6614H85.9174L85.4771 41.1252H84.3675L83.9624 43.6614H83.9448L83.8215 41.1252H82.8705Z" fill="#005BAA"/>
  <path fill-rule="evenodd" clip-rule="evenodd" d="M88.7354 41.7769L88.982 43.5029H88.4184L88.7178 41.7769H88.7354ZM88.1718 41.1252L87.3088 44.8767H88.1366L88.2951 44.1018H89.0877L89.211 44.8767H90.1268L89.3695 41.1252H88.1718Z" fill="#005BAA"/>
  <path fill-rule="evenodd" clip-rule="evenodd" d="M90.3382 41.1252L91.1483 43.3796V44.8943H92.0994V43.3796L92.9272 41.1252H92.0994L91.7296 42.7104H91.6767L91.2716 41.1252H90.3382Z" fill="#005BAA"/>
  <path fill-rule="evenodd" clip-rule="evenodd" d="M95.8509 41.9707C95.8509 41.3718 95.4634 41.0548 94.7765 41.0548C94.0896 41.0548 93.5612 41.4247 93.5612 41.9002V42.2348C93.5612 42.6223 93.7021 42.8513 94.072 43.0802L94.4595 43.3092C94.7413 43.4677 94.935 43.591 94.935 43.8728V44.0313C94.935 44.2427 94.8646 44.3307 94.6884 44.3307C94.5123 44.3307 94.389 44.2427 94.389 44.0313V43.6967H93.4556V43.9785C93.4556 44.6478 93.755 44.9296 94.618 44.9296C95.481 44.9296 95.8685 44.5949 95.8685 44.0313V43.8024C95.8685 43.5734 95.8333 43.3797 95.7276 43.2564C95.5867 43.0979 95.4282 42.9922 95.252 42.8865L94.8646 42.6399C94.6004 42.4814 94.4595 42.3581 94.4595 42.1468V41.9002C94.4595 41.7241 94.5123 41.636 94.6884 41.636C94.8646 41.636 94.9174 41.7241 94.9174 41.9002V42.2348H95.8509V41.9707Z" fill="#005BAA"/>
</svg>